# This file uses centimeters as units for non-parametric coordinates.

mtllib 00_body.mtl
g default
v 44.728812 85.190481 -17.580468
v 85.519989 -16.451240 -57.480928
v 41.950422 84.254223 13.377522
v 86.011909 -15.467414 28.458002
v -44.728825 85.190481 -17.580449
v -85.520003 -16.451240 -57.480904
v -41.950417 84.254223 13.377537
v -86.011894 -15.467414 28.458035
v -0.000013 -16.169664 -71.746403
v 0.000006 80.286115 36.300704
v 0.000012 -22.076008 66.335362
v -0.000005 89.475971 -29.408646
v 0.000007 33.186173 41.346231
v 51.240042 37.448591 16.837472
v 52.265758 37.481219 -29.571811
v -0.000008 39.461383 -40.198243
v -52.265768 37.481219 -29.571798
v -51.240036 37.448591 16.837493
vt 0.181202 0.512122
vt 0.272512 0.718593
vt 0.234151 0.762370
vt 0.058108 0.642717
vt 0.362919 0.495315
vt 0.362919 0.727215
vt 0.212857 0.849335
vt 0.000263 0.827958
vt 0.181202 0.512122
vt 0.058108 0.642717
vt 0.234151 0.762370
vt 0.272512 0.718593
vt 0.113602 0.839355
vt 0.151960 0.706506
vt 0.229881 0.622196
vt 0.362919 0.618946
vt 0.229881 0.622196
vt 0.151960 0.706506
vn 0.887819 0.460054 0.011304
vn 0.984039 0.170629 0.050522
vn 0.984039 0.170629 0.050522
vn 0.896637 0.442549 0.013888
vn 0.188442 0.417628 -0.888862
vn 0.233623 0.237799 -0.942800
vn 0.233623 0.237799 -0.942800
vn 0.183673 0.434288 -0.881849
vn 0.382954 0.319724 0.866673
vn 0.441363 0.124155 0.888698
vn 0.441363 0.124155 0.888698
vn 0.383414 0.318417 0.866951
vn -0.887819 0.460054 0.011305
vn -0.896637 0.442549 0.013889
vn -0.984039 0.170629 0.050522
vn -0.984039 0.170629 0.050522
vn -0.188442 0.417628 -0.888862
vn -0.183673 0.434288 -0.881849
vn -0.233623 0.237800 -0.942800
vn -0.233623 0.237800 -0.942800
vn -0.382954 0.319724 0.866673
vn -0.383414 0.318417 0.866951
vn -0.441363 0.124156 0.888698
vn -0.441363 0.124156 0.888698
vn 0.352874 0.399725 0.845990
vn 0.352874 0.399725 0.845990
vn 0.843517 0.537103 -0.000458
vn 0.843517 0.537103 -0.000458
vn 0.161192 0.508077 -0.846094
vn 0.161192 0.508077 -0.846094
vn -0.161193 0.508078 -0.846094
vn -0.161193 0.508077 -0.846093
vn -0.843517 0.537103 -0.000458
vn -0.843517 0.537103 -0.000458
vn -0.352874 0.399725 0.845991
vn -0.352874 0.399725 0.845991
s 1
g polySurface20 polySurface14 Cube
usemtl CubeSG
f 15/15/1 1/2/2 3/3/3 14/14/4
s 2
f 16/16/5 12/6/6 1/2/7 15/15/8
s 3
f 14/14/9 3/3/10 10/7/11 13/13/12
s 4
f 17/17/13 18/18/14 7/11/15 5/12/16
s 5
f 16/16/17 17/17/18 5/12/19 12/6/20
s 6
f 18/18/21 13/13/22 10/7/23 7/11/24
s 3
f 4/4/25 14/14/9 13/13/12 11/8/26
s 1
f 2/1/27 15/15/1 14/14/4 4/4/28
s 2
f 9/5/29 16/16/5 15/15/8 2/1/30
s 5
f 9/5/31 6/9/32 17/17/18 16/16/17
s 4
f 6/9/33 8/10/34 18/18/14 17/17/13
s 6
f 8/10/35 11/8/36 13/13/22 18/18/21
