# This file uses centimeters as units for non-parametric coordinates.

mtllib 01_chest.mtl
g default
v 11.698896 45.413507 6.468232
v 11.698897 39.784742 13.318252
v 47.406875 21.967269 -8.654803
v 42.491260 17.218662 16.564199
v 53.160770 40.170694 9.654896
v 49.112469 36.259938 16.504915
v -11.698898 45.413507 6.468236
v -11.698895 39.784742 13.318256
v 0.000004 37.189199 20.238225
v 0.000000 48.650099 1.822078
v -47.406866 21.967269 -8.654785
v -42.491248 17.218662 16.564214
v -53.160767 40.170694 9.654918
v -49.112460 36.259938 16.504936
v 44.728812 0.919957 -17.580468
v -0.000005 5.205448 -29.408646
v 0.000006 -3.984409 36.300704
v 41.950422 -0.016301 13.377522
v -44.728825 0.919957 -17.580449
v -41.950417 -0.016301 13.377537
vt 0.272512 0.718593
vt 0.362919 0.727215
vt 0.331325 0.822171
vt 0.312307 0.809852
vt 0.295816 0.840262
vt 0.299675 0.816331
vt 0.516001 0.600266
vt 0.597213 0.549899
vt 0.604386 0.588139
vt 0.595665 0.634569
vt 0.212857 0.849335
vt 0.234151 0.762370
vt 0.506665 0.615400
vt 0.591743 0.654244
vt 0.634524 0.515969
vt 0.648454 0.550603
vt 0.522928 0.736486
vt 0.547947 0.697227
vt 0.272512 0.718593
vt 0.312307 0.809852
vt 0.299675 0.816331
vt 0.516001 0.600266
vt 0.595665 0.634569
vt 0.604386 0.588139
vt 0.597213 0.549899
vt 0.234151 0.762370
vt 0.506665 0.615400
vt 0.591743 0.654244
vt 0.648454 0.550603
vt 0.634524 0.515969
vt 0.522928 0.736486
vt 0.547947 0.697227
vn 0.298121 0.585747 -0.753674
vn 0.298121 0.585747 -0.753674
vn 0.298121 0.585747 -0.753674
vn 0.298121 0.585747 -0.753674
vn 0.076911 0.825863 0.558601
vn 0.076911 0.825863 0.558601
vn 0.076911 0.825863 0.558601
vn 0.076911 0.825863 0.558601
vn -0.145479 -0.056432 0.987751
vn -0.145479 -0.056432 0.987751
vn -0.145479 -0.056432 0.987751
vn -0.145479 -0.056432 0.987751
vn 0.428343 0.327686 0.842107
vn 0.428343 0.327686 0.842107
vn 0.428343 0.327686 0.842107
vn 0.428343 0.327686 0.842107
vn 0.043630 0.813778 0.579537
vn 0.043630 0.813777 0.579537
vn 0.043630 0.813777 0.579537
vn 0.043630 0.813777 0.579537
vn 0.984978 -0.121609 0.122596
vn 0.984978 -0.121609 0.122596
vn 0.984978 -0.121609 0.122596
vn 0.984978 -0.121609 0.122596
vn 0.023165 0.566567 -0.823690
vn 0.023165 0.566567 -0.823690
vn 0.023165 0.566567 -0.823690
vn 0.023165 0.566567 -0.823690
vn -0.298122 0.585747 -0.753673
vn -0.298122 0.585747 -0.753673
vn -0.298122 0.585747 -0.753673
vn -0.298122 0.585747 -0.753673
vn -0.076911 0.825863 0.558601
vn -0.076911 0.825863 0.558601
vn -0.076911 0.825863 0.558601
vn -0.076911 0.825863 0.558601
vn 0.145480 -0.056433 0.987750
vn 0.145480 -0.056433 0.987750
vn 0.145480 -0.056433 0.987750
vn 0.145480 -0.056433 0.987750
vn -0.428343 0.327686 0.842107
vn -0.428343 0.327686 0.842107
vn -0.428343 0.327686 0.842107
vn -0.428343 0.327686 0.842107
vn -0.043629 0.813778 0.579536
vn -0.043629 0.813778 0.579536
vn -0.043629 0.813777 0.579536
vn -0.043629 0.813778 0.579536
vn -0.984978 -0.121608 0.122597
vn -0.984978 -0.121608 0.122597
vn -0.984978 -0.121609 0.122597
vn -0.984978 -0.121608 0.122597
vn -0.023165 0.566567 -0.823690
vn -0.023165 0.566567 -0.823690
vn -0.023165 0.566567 -0.823690
vn -0.023165 0.566567 -0.823690
s off
g polySurface21 polySurface14 Cube
usemtl CubeSG
f 15/1/1 16/2/2 10/3/3 1/4/4
f 1/4/5 10/3/6 9/5/7 2/6/8
f 2/7/9 18/8/10 4/9/11 6/10/12
f 17/11/13 18/12/14 2/6/15 9/5/16
f 1/13/17 2/7/18 6/10/19 5/14/20
f 18/8/21 15/15/22 3/16/23 4/9/24
f 15/17/25 1/13/26 5/14/27 3/18/28
f 19/19/29 7/20/30 10/3/31 16/2/32
f 7/20/33 8/21/34 9/5/35 10/3/36
f 8/22/37 14/23/38 12/24/39 20/25/40
f 17/11/41 9/5/42 8/21/43 20/26/44
f 7/27/45 13/28/46 14/23/47 8/22/48
f 20/25/49 12/24/50 11/29/51 19/30/52
f 19/31/53 11/32/54 13/28/55 7/27/56
