# This file uses centimeters as units for non-parametric coordinates.

mtllib 02_head.mtl
g default
v 18.853763 117.806133 9.625154
v 43.451498 93.513569 8.814738
v 65.680800 165.168651 11.205197
v 90.278529 140.876039 10.394779
vt 0.493454 0.843193
vt 0.493454 0.905139
vt 0.345604 0.905139
vt 0.345604 0.837656
vn 0.000000 -0.033342 0.999444
vn 0.000000 -0.033342 0.999444
vn 0.000000 -0.033342 0.999444
vn 0.000000 -0.033342 0.999444
s off
g polySurface6 group1 Cube
usemtl CubeSG
f 1/1/1 2/2/2 4/3/3 3/4/4
g default
v 57.662639 41.325029 72.732368
v 47.906091 91.694602 62.998061
v 57.662618 21.128591 -47.251943
v 30.338467 88.236316 -43.372576
v 64.068236 46.471342 -1.060280
v 62.567160 89.307674 4.081640
v 0.000018 21.554073 89.791525
v 0.000015 114.190372 70.763159
v -0.000012 14.434036 -85.291647
v -0.000006 119.207081 -47.024631
v -57.662609 41.325029 72.732388
v -47.906063 91.694602 62.998077
v -57.662630 21.128591 -47.251923
v -30.338477 88.236316 -43.372566
v 0.000005 132.692274 12.144715
v -64.068232 46.471342 -1.060258
v -62.567153 89.307674 4.081662
vt 0.603079 0.344639
vt 0.513466 0.345980
vt 0.506665 0.216471
vt 0.645851 0.250631
vt 0.670462 0.515443
vt 0.743930 0.388318
vt 0.724867 0.277779
vt 0.649951 0.150083
vt 0.743930 0.129470
vt 0.561989 0.097540
vt 0.727976 0.000263
vt 0.603079 0.344639
vt 0.645851 0.250631
vt 0.743930 0.388318
vt 0.724867 0.277779
vt 0.743930 0.129470
vt 0.649951 0.150083
vn 0.591320 0.755566 -0.281888
vn 0.591320 0.755566 -0.281888
vn 0.591320 0.755566 -0.281888
vn 0.591320 0.755566 -0.281888
vn 0.473017 0.280034 -0.835366
vn 0.473017 0.280034 -0.835366
vn 0.473017 0.280034 -0.835366
vn 0.473017 0.280034 -0.835366
vn 0.979344 0.126076 0.158086
vn 0.979344 0.126076 0.158086
vn 0.979344 0.126076 0.158086
vn 0.979344 0.126076 0.158086
vn 0.229008 0.206933 0.951175
vn 0.229008 0.206933 0.951175
vn 0.229008 0.206933 0.951175
vn 0.229008 0.206933 0.951175
vn 0.863908 0.261804 -0.430257
vn 0.863908 0.261804 -0.430257
vn 0.863908 0.261804 -0.430257
vn 0.863908 0.261804 -0.430257
vn 0.522712 0.833405 0.179468
vn 0.522712 0.833405 0.179469
vn 0.522712 0.833405 0.179469
vn 0.522712 0.833405 0.179469
vn -0.591320 0.755566 -0.281888
vn -0.591320 0.755566 -0.281888
vn -0.591320 0.755566 -0.281888
vn -0.591320 0.755566 -0.281888
vn -0.473017 0.280034 -0.835366
vn -0.473017 0.280034 -0.835366
vn -0.473017 0.280034 -0.835366
vn -0.473017 0.280034 -0.835366
vn -0.979343 0.126076 0.158086
vn -0.979343 0.126076 0.158086
vn -0.979343 0.126076 0.158086
vn -0.979343 0.126076 0.158086
vn -0.229008 0.206933 0.951175
vn -0.229008 0.206933 0.951175
vn -0.229008 0.206933 0.951175
vn -0.229008 0.206933 0.951175
vn -0.863908 0.261804 -0.430257
vn -0.863908 0.261804 -0.430257
vn -0.863908 0.261804 -0.430257
vn -0.863908 0.261804 -0.430257
vn -0.522712 0.833405 0.179469
vn -0.522712 0.833405 0.179469
vn -0.522712 0.833405 0.179469
vn -0.522712 0.833405 0.179469
s off
g group1 Cube polySurface5
usemtl CubeSG
f 8/5/5 14/6/6 19/7/7 10/8/8
f 13/9/9 14/6/10 8/5/11 7/10/12
f 9/11/13 10/8/14 6/12/15 5/13/16
f 5/13/17 6/12/18 12/14/19 11/15/20
f 7/10/21 8/5/22 10/8/23 9/11/24
f 10/8/25 19/7/26 12/14/27 6/12/28
f 18/16/29 21/17/30 19/7/31 14/6/32
f 13/9/33 17/18/34 18/16/35 14/6/36
f 20/19/37 15/20/38 16/21/39 21/17/40
f 15/20/41 11/15/42 12/14/43 16/21/44
f 17/18/45 20/19/46 21/17/47 18/16/48
f 21/17/49 16/21/50 12/14/51 19/7/52
g default
v 58.366532 8.184084 26.134738
v 39.181906 93.342050 35.094714
v 58.366525 25.007232 -15.890274
v 28.702243 96.735128 -19.189364
v 0.000014 -9.190778 66.312671
v 0.000014 103.041586 64.989150
v -0.000005 14.445289 -41.760873
v -0.000003 102.140602 -33.175934
v -58.366518 8.184084 26.134758
v -39.181888 93.342050 35.094728
v -58.366525 25.007232 -15.890254
v -28.702245 96.735128 -19.189354
vt 0.777653 0.041535
vt 0.991251 0.000263
vt 0.996564 0.080038
vt 0.865140 0.135357
vt 0.999737 0.226423
vt 0.839909 0.188232
vt 0.999737 0.342696
vt 0.744456 0.294351
vt 0.385022 0.672705
vt 0.442087 0.645558
vt 0.442087 0.837130
vt 0.363445 0.778621
vt 0.865140 0.135357
vt 0.996564 0.080038
vt 0.839909 0.188232
vt 0.999737 0.226423
vt 0.385022 0.672705
vt 0.363445 0.778621
vn 0.408678 0.106099 -0.906491
vn 0.408678 0.106099 -0.906491
vn 0.408678 0.106099 -0.906491
vn 0.408677 0.106099 -0.906491
vn 0.953558 0.298389 -0.041125
vn 0.953558 0.298389 -0.041125
vn 0.953558 0.298389 -0.041125
vn 0.953558 0.298389 -0.041125
vn 0.581925 0.025111 0.812854
vn 0.581925 0.025111 0.812854
vn 0.581925 0.025111 0.812854
vn 0.581925 0.025111 0.812854
vn 0.195339 -0.946938 -0.255248
vn 0.195339 -0.946938 -0.255248
vn 0.195339 -0.946938 -0.255248
vn 0.195339 -0.946938 -0.255248
vn 0.217425 0.976076 0.001010
vn 0.217425 0.976076 0.001010
vn 0.217425 0.976076 0.001010
vn 0.217425 0.976076 0.001010
vn -0.408678 0.106099 -0.906491
vn -0.408678 0.106099 -0.906491
vn -0.408678 0.106099 -0.906491
vn -0.408678 0.106099 -0.906491
vn -0.953558 0.298389 -0.041124
vn -0.953558 0.298389 -0.041124
vn -0.953558 0.298389 -0.041124
vn -0.953558 0.298389 -0.041124
vn -0.581925 0.025111 0.812855
vn -0.581925 0.025111 0.812855
vn -0.581925 0.025111 0.812855
vn -0.581925 0.025111 0.812855
vn -0.195339 -0.946938 -0.255248
vn -0.195339 -0.946938 -0.255248
vn -0.195339 -0.946938 -0.255248
vn -0.195339 -0.946938 -0.255248
vn -0.217425 0.976076 0.001010
vn -0.217425 0.976076 0.001010
vn -0.217425 0.976076 0.001010
vn -0.217425 0.976076 0.001010
s off
g group1 Cube polySurface4
usemtl CubeSG
f 28/22/53 29/23/54 25/24/55 24/25/56
f 24/25/57 25/24/58 23/26/59 22/27/60
f 22/27/61 23/26/62 27/28/63 26/29/64
f 28/22/65 24/25/66 22/27/67 26/29/68
f 25/30/69 29/31/70 27/32/71 23/33/72
f 28/22/73 32/34/74 33/35/75 29/23/76
f 32/34/77 30/36/78 31/37/79 33/35/80
f 30/36/81 26/29/82 27/28/83 31/37/84
f 28/22/85 26/29/86 30/36/87 32/34/88
f 33/38/89 31/39/90 27/32/91 29/31/92
g default
v -18.853754 117.806133 9.625160
v -43.451490 93.513569 8.814753
v -65.680791 165.168651 11.205220
v -90.278520 140.876039 10.394810
vt 0.493454 0.843193
vt 0.345604 0.837656
vt 0.345604 0.905139
vt 0.493454 0.905139
vn 0.000000 -0.033342 0.999444
vn 0.000000 -0.033342 0.999444
vn 0.000000 -0.033342 0.999444
vn 0.000000 -0.033342 0.999444
s off
g group1 Cube polySurface10
usemtl CubeSG
f 34/40/93 36/41/94 37/42/95 35/43/96
