# This file uses centimeters as units for non-parametric coordinates.

mtllib 02_head.mtl
g default
v 57.662639 41.325029 72.732368
v 47.906091 91.694602 62.998061
v 57.662618 21.128591 -47.251943
v 30.338467 88.236316 -43.372576
v 64.068236 46.471342 -1.060280
v 62.567160 89.307674 4.081640
v 0.000018 21.554073 89.791525
v 0.000015 114.190372 70.763159
v -0.000012 14.434036 -85.291647
v -0.000006 119.207081 -47.024631
v -57.662609 41.325029 72.732388
v -47.906063 91.694602 62.998077
v -57.662630 21.128591 -47.251923
v -30.338477 88.236316 -43.372566
v 0.000005 132.692274 12.144715
v -64.068232 46.471342 -1.060258
v -62.567153 89.307674 4.081662
vt 0.603079 0.344639
vt 0.513466 0.345980
vt 0.506665 0.216471
vt 0.645851 0.250631
vt 0.670462 0.515443
vt 0.743930 0.388318
vt 0.724867 0.277779
vt 0.649951 0.150083
vt 0.743930 0.129470
vt 0.561989 0.097540
vt 0.727976 0.000263
vt 0.603079 0.344639
vt 0.645851 0.250631
vt 0.743930 0.388318
vt 0.724867 0.277779
vt 0.743930 0.129470
vt 0.649951 0.150083
vn 0.591320 0.755566 -0.281888
vn 0.591320 0.755566 -0.281888
vn 0.591320 0.755566 -0.281888
vn 0.591320 0.755566 -0.281888
vn 0.473017 0.280034 -0.835366
vn 0.473017 0.280034 -0.835366
vn 0.473017 0.280034 -0.835366
vn 0.473017 0.280034 -0.835366
vn 0.979344 0.126076 0.158086
vn 0.979344 0.126076 0.158086
vn 0.979344 0.126076 0.158086
vn 0.979344 0.126076 0.158086
vn 0.229008 0.206933 0.951175
vn 0.229008 0.206933 0.951175
vn 0.229008 0.206933 0.951175
vn 0.229008 0.206933 0.951175
vn 0.863908 0.261804 -0.430257
vn 0.863908 0.261804 -0.430257
vn 0.863908 0.261804 -0.430257
vn 0.863908 0.261804 -0.430257
vn 0.522712 0.833405 0.179468
vn 0.522712 0.833405 0.179469
vn 0.522712 0.833405 0.179469
vn 0.522712 0.833405 0.179469
vn -0.591320 0.755566 -0.281888
vn -0.591320 0.755566 -0.281888
vn -0.591320 0.755566 -0.281888
vn -0.591320 0.755566 -0.281888
vn -0.473017 0.280034 -0.835366
vn -0.473017 0.280034 -0.835366
vn -0.473017 0.280034 -0.835366
vn -0.473017 0.280034 -0.835366
vn -0.979343 0.126076 0.158086
vn -0.979343 0.126076 0.158086
vn -0.979343 0.126076 0.158086
vn -0.979343 0.126076 0.158086
vn -0.229008 0.206933 0.951175
vn -0.229008 0.206933 0.951175
vn -0.229008 0.206933 0.951175
vn -0.229008 0.206933 0.951175
vn -0.863908 0.261804 -0.430257
vn -0.863908 0.261804 -0.430257
vn -0.863908 0.261804 -0.430257
vn -0.863908 0.261804 -0.430257
vn -0.522712 0.833405 0.179469
vn -0.522712 0.833405 0.179469
vn -0.522712 0.833405 0.179469
vn -0.522712 0.833405 0.179469
s off
g polySurface5 group1 group2
usemtl CubeSG
f 4/1/1 10/2/2 15/3/3 6/4/4
f 9/5/5 10/2/6 4/1/7 3/6/8
f 5/7/9 6/4/10 2/8/11 1/9/12
f 1/9/13 2/8/14 8/10/15 7/11/16
f 3/6/17 4/1/18 6/4/19 5/7/20
f 6/4/21 15/3/22 8/10/23 2/8/24
f 14/12/25 17/13/26 15/3/27 10/2/28
f 9/5/29 13/14/30 14/12/31 10/2/32
f 16/15/33 11/16/34 12/17/35 17/13/36
f 11/16/37 7/11/38 8/10/39 12/17/40
f 13/14/41 16/15/42 17/13/43 14/12/44
f 17/13/45 12/17/46 8/10/47 15/3/48
g default
v 52.799584 11.324414 29.488810
v 39.181906 93.342050 39.182400
v 52.919972 25.007232 -13.133513
v 28.702243 96.735128 -19.546292
v 0.000014 -7.309893 67.500999
v 0.000015 103.041586 71.524502
v -0.000005 14.445289 -38.510504
v -0.000003 102.140602 -34.678041
v -47.353010 11.324414 28.089679
v -39.181888 93.342050 39.182414
v -52.919966 25.007232 -13.133494
v -28.702245 96.735128 -19.546282
v 54.400905 25.786957 31.492555
v 52.234667 39.833995 -16.714869
v -0.000005 32.572659 -42.046012
v -52.234668 39.833995 -16.714851
v -54.400889 25.786957 31.492574
v 0.000015 14.008614 72.660403
v -37.370525 37.767669 -23.923206
v -20.534599 98.273333 -23.852248
v -28.032101 96.102198 48.385831
v -38.920309 22.435244 43.207490
v -37.860804 3.239795 39.304755
v -37.860815 22.001680 -20.354897
v 32.313121 -1.514069 57.046122
v 34.042154 17.504450 60.329938
v 23.670250 101.709350 61.395108
v 17.016851 101.713356 -30.556458
v 32.192635 37.324747 -35.914520
v 32.726899 21.290716 -33.182350
v 0.000005 2.064642 17.018602
v 35.856127 9.345504 14.036779
v 58.366529 16.195222 7.838071
v 53.369347 32.476112 8.536306
v 34.191518 94.957813 11.215952
v 20.501919 101.711258 17.608016
v 0.000006 102.612528 20.951129
v -24.461810 97.136100 13.986249
v -34.191509 94.957813 11.215964
v -53.369339 32.476124 8.536325
v -52.919962 16.195222 8.459314
v -37.860809 12.174150 10.894984
v -12.797395 -4.989103 57.970334
v -13.155520 16.856917 62.704963
v -9.475176 100.695976 63.703350
v -8.268380 100.761422 18.596916
v -6.940943 100.833400 -31.018793
v -12.631688 34.328636 -35.920286
v -12.797411 16.999444 -32.373686
v -12.797403 5.481776 14.948745
v 16.666533 -5.231277 62.108563
v 17.558340 15.811702 66.300571
v 12.208698 102.354463 66.299940
v 10.574525 102.147659 19.226811
v 8.776984 101.920232 -32.552203
v 16.604381 35.023698 -38.883499
v 16.879945 17.976030 -35.762337
v 16.768160 5.819985 15.502698
vt 0.777653 0.041535
vt 0.991251 0.000263
vt 0.996564 0.080038
vt 0.865140 0.135357
vt 0.999737 0.226423
vt 0.839909 0.188232
vt 0.999737 0.342696
vt 0.744456 0.294351
vt 0.385022 0.672705
vt 0.442087 0.645558
vt 0.442087 0.837130
vt 0.363445 0.778621
vt 0.865140 0.135357
vt 0.996564 0.080038
vt 0.839909 0.188232
vt 0.999737 0.226423
vt 0.385022 0.672705
vt 0.363445 0.778621
vt 0.872947 0.196127
vt 0.892307 0.123922
vt 0.821805 0.033004
vt 0.892307 0.123922
vt 0.872947 0.196127
vt 0.797225 0.304344
vt 0.872245 0.098050
vt 0.995052 0.057337
vt 0.401261 0.664980
vt 0.999737 0.259510
vt 0.385824 0.795271
vt 0.851399 0.226921
vt 0.812746 0.218430
vt 0.840245 0.108659
vt 0.795396 0.237719
vt 0.837635 0.246593
vt 0.999737 0.280646
vt 0.400119 0.805906
vt 0.994086 0.042836
vt 0.411634 0.660045
vt 0.859429 0.081524
vt 0.824341 0.091604
vt 0.760264 0.173961
vt 0.809180 0.168140
vt 0.851924 0.163053
vt 0.882166 0.161743
vt 0.998226 0.156715
vt 0.373720 0.728184
vt 0.405602 0.736448
vt 0.442087 0.745904
vt 0.393175 0.733227
vt 0.998226 0.156715
vt 0.373720 0.728184
vt 0.882166 0.161743
vt 0.851924 0.163053
vt 0.825841 0.166157
vt 0.767539 0.268688
vt 0.815536 0.278174
vt 0.999737 0.314578
vt 0.423070 0.822981
vt 0.425554 0.741619
vt 0.992536 0.019555
vt 0.428288 0.652123
vt 0.838854 0.054990
vt 0.798809 0.064224
vt 0.782430 0.171323
vt 0.770730 0.265141
vt 0.818068 0.274557
vt 0.999737 0.310692
vt 0.420441 0.821025
vt 0.423269 0.741026
vt 0.992713 0.022221
vt 0.426380 0.653030
vt 0.841211 0.058030
vt 0.801734 0.067360
vt 0.785494 0.170958
vn 0.197790 0.025092 -0.979923
vn 0.193572 0.108982 -0.975014
vn 0.193032 0.114013 -0.974546
vn 0.196588 0.042304 -0.979573
vn 0.961980 0.267852 -0.053380
vn 0.951569 0.300811 -0.063470
vn 0.962861 0.260386 -0.071399
vn 0.973155 0.228077 -0.030841
vn 0.358289 -0.036086 0.932913
vn 0.359380 -0.026406 0.932818
vn 0.361882 0.021684 0.931972
vn 0.362064 0.017065 0.931997
vn 0.169965 -0.962516 -0.211363
vn 0.176340 -0.958774 -0.222836
vn 0.138911 -0.967001 -0.213571
vn 0.127201 -0.970656 -0.204077
vn 0.042311 0.999087 -0.005948
vn 0.042745 0.999060 -0.007221
vn 0.048273 0.998807 -0.007312
vn 0.048546 0.998800 -0.006416
vn -0.448472 0.034016 -0.893150
vn -0.448338 0.042079 -0.892873
vn -0.441905 0.117577 -0.889323
vn -0.442616 0.107261 -0.890273
vn -0.971389 0.231118 -0.054667
vn -0.984586 0.167184 -0.051378
vn -0.962861 0.260386 -0.071399
vn -0.951569 0.300811 -0.063470
vn -0.629369 -0.023847 0.776740
vn -0.620003 -0.027101 0.784131
vn -0.617299 0.020870 0.786451
vn -0.617019 0.030361 0.786363
vn -0.240482 -0.934851 -0.261194
vn -0.206250 -0.948733 -0.239515
vn -0.140804 -0.963703 -0.226826
vn -0.181019 -0.949623 -0.255828
vn -0.217838 0.975977 0.003960
vn -0.230980 0.972957 0.001498
vn -0.228033 0.973646 -0.003927
vn -0.217249 0.976114 -0.002202
vn 0.990760 0.128544 0.043252
vn 0.987208 0.097991 0.125768
vn 0.202170 -0.180575 -0.962559
vn 0.201309 -0.174465 -0.963865
vn -0.451656 -0.176584 -0.874542
vn -0.451934 -0.181490 -0.873394
vn -0.989172 -0.146047 0.014479
vn -0.969833 -0.240801 0.037921
vn -0.645088 -0.210896 0.734428
vn -0.618399 -0.181633 0.764586
vn 0.342472 -0.203078 0.917318
vn 0.338738 -0.209613 0.917234
vn -0.448914 0.038776 -0.892733
vn -0.440927 0.130727 -0.887971
vn -0.219364 0.975577 0.011337
vn -0.235063 0.971938 0.009028
vn -0.639573 -0.014469 0.768595
vn -0.616584 0.042352 0.786149
vn -0.716140 -0.308403 0.626124
vn -0.326922 -0.917674 -0.225825
vn -0.282227 -0.913334 -0.293546
vn -0.452204 -0.186462 -0.872206
vn 0.827175 -0.167015 0.536551
vn 0.820744 0.056118 0.568533
vn 0.683898 0.020189 0.729299
vn 0.640376 -0.188187 0.744650
vn 0.640329 0.073279 0.764597
vn 0.813834 0.104255 0.571669
vn 0.430088 0.902335 -0.028560
vn 0.266282 0.963718 -0.018500
vn 0.189468 0.981790 -0.013768
vn 0.436769 0.899094 -0.029393
vn 0.532920 0.118014 -0.837896
vn 0.461409 0.185064 -0.867671
vn 0.680221 0.231572 -0.695466
vn 0.695450 0.132710 -0.706213
vn 0.522512 -0.141502 -0.840808
vn 0.702701 -0.115844 -0.701991
vn 0.181255 -0.958206 -0.221332
vn 0.237061 -0.941430 -0.239816
vn 0.309488 -0.911390 -0.271267
vn 0.282252 -0.940530 -0.189044
vn 0.214155 -0.952045 -0.218515
vn 0.204851 -0.951895 -0.227885
vn 0.232973 -0.936653 -0.261542
vn 0.322447 -0.893505 -0.312534
vn 0.981876 0.171980 -0.079637
vn 0.945412 0.320549 -0.058695
vn 0.940086 0.336252 -0.056332
vn 0.423647 0.905402 -0.027758
vn 0.172435 0.984942 -0.012502
vn 0.035510 0.999352 -0.005956
vn 0.035536 0.999343 -0.007102
vn -0.203018 0.979168 0.003598
vn -0.203543 0.979062 -0.002751
vn -0.202160 0.979255 0.013855
vn -0.950659 0.305623 -0.053311
vn -0.940086 0.336252 -0.056332
vn -0.999735 0.005050 -0.022472
vn -0.259061 -0.927971 -0.267876
vn -0.263247 -0.909788 -0.320915
vn -0.256173 -0.937425 -0.235818
vn -0.613309 -0.181300 0.768754
vn -0.618669 -0.035928 0.784829
vn -0.617473 0.013771 0.786472
vn -0.226601 0.973966 -0.006559
vn -0.217465 0.976047 -0.006452
vn -0.203833 0.978985 -0.006291
vn -0.448912 0.021737 -0.893312
vn -0.443159 0.098871 -0.890974
vn -0.451432 -0.172748 -0.875424
vn -0.254541 -0.941968 -0.218873
vn -0.185696 -0.959352 -0.212511
vn -0.124229 -0.970633 -0.206008
s 1
g group1 group2 polySurface4
usemtl CubeSG
f 32/38/49 25/19/50 72/87/51 73/89/52
s 2
f 51/61/53 52/62/54 19/22/55 30/36/56
s 3
f 35/41/57 69/83/58 70/84/59 23/24/60
s 4
f 48/58/61 75/91/62 68/82/63 22/25/64
s 5
f 71/86/65 54/65/66 23/28/67 70/85/68
s 6
f 65/79/69 36/42/70 37/43/71 64/77/72
s 7
f 57/69/73 34/40/74 27/33/75 56/67/76
s 8
f 39/47/77 61/73/78 62/74/79 38/45/80
s 9
f 59/71/81 67/81/82 60/72/83 40/48/84
s 10
f 55/66/85 38/46/86 62/75/87 63/76/88
s 2
f 50/60/89 51/61/53 30/36/56 18/23/90
s 1
f 24/18/91 32/38/49 73/89/52 74/90/92
s 6
f 66/80/93 41/49/94 36/42/70 65/79/69
s 7
f 58/70/95 26/32/96 34/40/74 57/69/73
s 8
f 40/48/97 60/72/98 61/73/78 39/47/77
s 3
f 68/82/99 69/83/58 35/41/57 22/25/100
s 6
f 36/42/70 33/39/101 29/31/102 37/43/71
s 10
f 56/68/103 27/35/104 38/46/86 55/66/85
s 8
f 34/40/105 39/47/77 38/45/80 27/33/106
f 26/32/107 40/48/97 39/47/77 34/40/105
s 9
f 59/71/81 40/48/84 26/32/108 58/70/109
s 6
f 36/42/70 41/49/94 28/30/110 33/39/101
s 3
f 18/23/111 30/36/112 43/51/113 42/50/114
f 44/52/115 43/51/113 30/36/112 19/22/116
s 5
f 52/63/117 53/64/118 44/53/119 19/29/120
s 1
f 46/56/121 45/54/122 21/20/123 31/37/124
f 47/57/125 46/56/121 31/37/124 20/21/126
s 4
f 42/50/127 49/59/128 50/60/129 18/23/130
f 24/18/131 74/90/132 75/91/62 48/58/61
f 50/60/129 49/59/128 47/57/133 20/21/134
s 2
f 20/21/135 31/37/136 51/61/53 50/60/89
f 31/37/136 21/20/137 52/62/54 51/61/53
s 5
f 21/26/138 45/55/139 53/64/118 52/63/117
f 72/88/140 25/27/141 54/65/66 71/86/65
s 10
f 37/44/142 55/66/85 63/76/88 64/78/143
f 29/34/144 56/68/103 55/66/85 37/44/142
s 7
f 33/39/145 57/69/73 56/67/76 29/31/146
f 28/30/147 58/70/95 57/69/73 33/39/145
s 9
f 41/49/148 59/71/81 58/70/109 28/30/149
f 66/80/150 67/81/82 59/71/81 41/49/148
s 8
f 60/72/98 22/25/151 35/41/152 61/73/78
f 62/74/79 61/73/78 35/41/152 23/24/153
s 10
f 63/76/88 62/75/87 23/28/154 54/65/155
f 64/78/143 63/76/88 54/65/155 25/27/156
s 6
f 32/38/157 65/79/69 64/77/72 25/19/158
f 24/18/159 66/80/93 65/79/69 32/38/157
s 9
f 24/18/160 48/58/161 67/81/82 66/80/150
f 60/72/83 67/81/82 48/58/161 22/25/162
s 3
f 42/50/114 43/51/113 69/83/58 68/82/99
f 70/84/59 69/83/58 43/51/113 44/52/115
s 5
f 53/64/118 71/86/65 70/85/68 44/53/119
f 45/55/139 72/88/140 71/86/65 53/64/118
s 1
f 73/89/52 72/87/51 45/54/122 46/56/121
f 74/90/92 73/89/52 46/56/121 47/57/125
s 4
f 75/91/62 74/90/132 47/57/133 49/59/128
f 68/82/63 75/91/62 49/59/128 42/50/127
g default
v -24.034860 111.399784 3.768115
v -26.964556 109.568917 0.313380
v -30.966594 107.067905 -0.951141
v -34.968633 104.566893 0.313380
v -37.898329 102.736026 3.768115
v -38.970672 102.065882 8.487371
v -37.898329 102.736026 13.206626
v -34.968633 104.566893 16.661361
v -30.966594 107.067905 17.925882
v -26.964556 109.568917 16.661361
v -24.034860 111.399784 13.206626
v -22.962517 112.069928 8.487371
v -47.066790 154.147129 1.965210
v -51.115722 151.616813 -2.809343
v -56.646667 148.160335 -4.556951
v -62.177611 144.703858 -2.809343
v -66.226543 142.173541 1.965210
v -67.708555 141.247381 8.487371
v -66.226543 142.173541 15.009531
v -62.177611 144.703858 19.784084
v -56.646667 148.160335 21.531692
v -51.115722 151.616813 19.784084
v -47.066790 154.147129 15.009531
v -45.584778 155.073290 8.487371
v -30.966594 107.067905 8.487371
v -56.646667 148.160335 8.487371
vt 0.635316 0.078125
vt 0.578125 0.020934
vt 0.500000 0.000000
vt 0.421875 0.020934
vt 0.364684 0.078125
vt 0.343750 0.156250
vt 0.364684 0.234375
vt 0.421875 0.291566
vt 0.500000 0.312500
vt 0.578125 0.291566
vt 0.635316 0.234375
vt 0.656250 0.156250
vt 0.375000 0.312500
vt 0.395833 0.312500
vt 0.416667 0.312500
vt 0.437500 0.312500
vt 0.458333 0.312500
vt 0.479167 0.312500
vt 0.500000 0.312500
vt 0.520833 0.312500
vt 0.541667 0.312500
vt 0.562500 0.312500
vt 0.583333 0.312500
vt 0.604167 0.312500
vt 0.625000 0.312500
vt 0.375000 0.688440
vt 0.395833 0.688440
vt 0.416667 0.688440
vt 0.437500 0.688440
vt 0.458333 0.688440
vt 0.479167 0.688440
vt 0.500000 0.688440
vt 0.520833 0.688440
vt 0.541667 0.688440
vt 0.562500 0.688440
vt 0.583333 0.688440
vt 0.604167 0.688440
vt 0.625000 0.688440
vt 0.635316 0.765625
vt 0.578125 0.708434
vt 0.500000 0.687500
vt 0.421875 0.708434
vt 0.364684 0.765625
vt 0.343750 0.843750
vt 0.364684 0.921875
vt 0.421875 0.979066
vt 0.500000 1.000000
vt 0.578125 0.979066
vt 0.635316 0.921875
vt 0.656250 0.843750
vt 0.500000 0.150000
vt 0.500000 0.837500
vn 0.636094 0.312976 -0.705287
vn 0.636094 0.312976 -0.705287
vn 0.636094 0.312976 -0.705287
vn 0.636094 0.312976 -0.705287
vn 0.256914 0.076014 -0.963440
vn 0.256914 0.076014 -0.963440
vn 0.256914 0.076014 -0.963440
vn 0.256914 0.076014 -0.963440
vn -0.180926 -0.197607 -0.963440
vn -0.180926 -0.197607 -0.963440
vn -0.180926 -0.197607 -0.963440
vn -0.180926 -0.197607 -0.963440
vn -0.560106 -0.434570 -0.705287
vn -0.560106 -0.434570 -0.705287
vn -0.560106 -0.434570 -0.705287
vn -0.560106 -0.434570 -0.705287
vn -0.779026 -0.571381 -0.258153
vn -0.779026 -0.571381 -0.258153
vn -0.779026 -0.571381 -0.258153
vn -0.779026 -0.571381 -0.258153
vn -0.779026 -0.571381 0.258153
vn -0.779026 -0.571381 0.258153
vn -0.779026 -0.571381 0.258153
vn -0.779026 -0.571381 0.258153
vn -0.560106 -0.434570 0.705287
vn -0.560106 -0.434570 0.705287
vn -0.560106 -0.434570 0.705287
vn -0.560106 -0.434570 0.705287
vn -0.180926 -0.197607 0.963440
vn -0.180926 -0.197607 0.963440
vn -0.180926 -0.197607 0.963440
vn -0.180926 -0.197607 0.963440
vn 0.256914 0.076014 0.963440
vn 0.256914 0.076014 0.963440
vn 0.256914 0.076014 0.963440
vn 0.256914 0.076014 0.963440
vn 0.636094 0.312976 0.705287
vn 0.636094 0.312976 0.705287
vn 0.636094 0.312976 0.705287
vn 0.636094 0.312976 0.705287
vn 0.855014 0.449787 0.258153
vn 0.855014 0.449787 0.258153
vn 0.855014 0.449787 0.258153
vn 0.855014 0.449787 0.258153
vn 0.855014 0.449787 -0.258153
vn 0.855014 0.449787 -0.258153
vn 0.855014 0.449787 -0.258153
vn 0.855014 0.449787 -0.258153
vn 0.529959 -0.848023 0.000000
vn 0.529959 -0.848023 0.000000
vn 0.529959 -0.848023 0.000000
vn 0.529959 -0.848023 0.000000
vn 0.529959 -0.848023 0.000000
vn 0.529959 -0.848023 0.000000
vn 0.529959 -0.848023 0.000000
vn 0.529959 -0.848023 0.000000
vn 0.529959 -0.848023 0.000000
vn 0.529959 -0.848023 0.000000
vn 0.529959 -0.848023 0.000000
vn 0.529959 -0.848023 0.000000
vn 0.529959 -0.848023 0.000000
vn -0.529959 0.848023 0.000000
vn -0.529959 0.848023 0.000000
vn -0.529959 0.848023 0.000000
vn -0.529959 0.848023 0.000000
vn -0.529959 0.848023 0.000000
vn -0.529959 0.848023 0.000000
vn -0.529959 0.848023 0.000000
vn -0.529959 0.848023 0.000000
vn -0.529959 0.848023 0.000000
vn -0.529959 0.848023 0.000000
vn -0.529959 0.848023 0.000000
vn -0.529959 0.848023 0.000000
vn -0.529959 0.848023 0.000000
s off
g group2 pasted__pCylinder1
usemtl blinn1SG
f 76/104/163 77/105/164 89/118/165 88/117/166
f 77/105/167 78/106/168 90/119/169 89/118/170
f 78/106/171 79/107/172 91/120/173 90/119/174
f 79/107/175 80/108/176 92/121/177 91/120/178
f 80/108/179 81/109/180 93/122/181 92/121/182
f 81/109/183 82/110/184 94/123/185 93/122/186
f 82/110/187 83/111/188 95/124/189 94/123/190
f 83/111/191 84/112/192 96/125/193 95/124/194
f 84/112/195 85/113/196 97/126/197 96/125/198
f 85/113/199 86/114/200 98/127/201 97/126/202
f 86/114/203 87/115/204 99/128/205 98/127/206
f 87/115/207 76/116/208 88/129/209 99/128/210
s 1
f 77/93/211 76/92/212 100/142/213
f 78/94/214 77/93/211 100/142/213
f 79/95/215 78/94/214 100/142/213
f 80/96/216 79/95/215 100/142/213
f 81/97/217 80/96/216 100/142/213
f 82/98/218 81/97/217 100/142/213
f 83/99/219 82/98/218 100/142/213
f 84/100/220 83/99/219 100/142/213
f 85/101/221 84/100/220 100/142/213
f 86/102/222 85/101/221 100/142/213
f 87/103/223 86/102/222 100/142/213
f 76/92/212 87/103/223 100/142/213
s 2
f 88/140/224 89/139/225 101/143/226
f 89/139/225 90/138/227 101/143/226
f 90/138/227 91/137/228 101/143/226
f 91/137/228 92/136/229 101/143/226
f 92/136/229 93/135/230 101/143/226
f 93/135/230 94/134/231 101/143/226
f 94/134/231 95/133/232 101/143/226
f 95/133/232 96/132/233 101/143/226
f 96/132/233 97/131/234 101/143/226
f 97/131/234 98/130/235 101/143/226
f 98/130/235 99/141/236 101/143/226
f 99/141/236 88/140/224 101/143/226
g default
v 37.427434 103.382973 3.768115
v 34.550460 105.295618 0.313380
v 30.620440 107.908340 -0.951141
v 26.690420 110.521062 0.313380
v 23.813445 112.433707 3.768115
v 22.760400 113.133784 8.487371
v 23.813445 112.433707 13.206626
v 26.690420 110.521062 16.661361
v 30.620440 107.908340 17.925882
v 34.550460 105.295618 16.661361
v 37.427434 103.382973 13.206626
v 38.480480 102.682896 8.487371
v 65.946906 142.610816 2.594802
v 62.354651 144.998988 -1.718859
v 57.447539 148.261291 -3.297767
v 52.540427 151.523595 -1.718859
v 48.948172 153.911767 2.594802
v 47.633315 154.785898 8.487371
v 48.948172 153.911767 14.379940
v 52.540427 151.523595 18.693600
v 57.447539 148.261291 20.272509
v 62.354651 144.998988 18.693600
v 65.946906 142.610816 14.379940
v 67.261762 141.736685 8.487371
v 30.620440 107.908340 8.487371
v 57.447539 148.261292 8.487371
vt 0.635316 0.078125
vt 0.578125 0.020934
vt 0.500000 0.000000
vt 0.421875 0.020934
vt 0.364684 0.078125
vt 0.343750 0.156250
vt 0.364684 0.234375
vt 0.421875 0.291566
vt 0.500000 0.312500
vt 0.578125 0.291566
vt 0.635316 0.234375
vt 0.656250 0.156250
vt 0.375000 0.312500
vt 0.395833 0.312500
vt 0.416667 0.312500
vt 0.437500 0.312500
vt 0.458333 0.312500
vt 0.479167 0.312500
vt 0.500000 0.312500
vt 0.520833 0.312500
vt 0.541667 0.312500
vt 0.562500 0.312500
vt 0.583333 0.312500
vt 0.604167 0.312500
vt 0.625000 0.312500
vt 0.375000 0.688440
vt 0.395833 0.688440
vt 0.416667 0.688440
vt 0.437500 0.688440
vt 0.458333 0.688440
vt 0.479167 0.688440
vt 0.500000 0.688440
vt 0.520833 0.688440
vt 0.541667 0.688440
vt 0.562500 0.688440
vt 0.583333 0.688440
vt 0.604167 0.688440
vt 0.625000 0.688440
vt 0.635316 0.765625
vt 0.578125 0.708434
vt 0.500000 0.687500
vt 0.421875 0.708434
vt 0.364684 0.765625
vt 0.343750 0.843750
vt 0.364684 0.921875
vt 0.421875 0.979066
vt 0.500000 1.000000
vt 0.578125 0.979066
vt 0.635316 0.921875
vt 0.656250 0.843750
vt 0.500000 0.150000
vt 0.500000 0.837500
vn 0.562340 -0.429960 -0.706334
vn 0.562340 -0.429960 -0.706334
vn 0.562340 -0.429960 -0.706334
vn 0.562340 -0.429960 -0.706334
vn 0.189430 -0.182045 -0.964871
vn 0.189430 -0.182045 -0.964871
vn 0.189430 -0.182045 -0.964871
vn 0.189430 -0.182045 -0.964871
vn -0.241168 0.104222 -0.964871
vn -0.241168 0.104222 -0.964871
vn -0.241168 0.104222 -0.964871
vn -0.241168 0.104222 -0.964871
vn -0.614078 0.352136 -0.706334
vn -0.614078 0.352136 -0.706334
vn -0.614078 0.352136 -0.706334
vn -0.614078 0.352136 -0.706334
vn -0.829377 0.495270 -0.258536
vn -0.829377 0.495270 -0.258536
vn -0.829377 0.495270 -0.258536
vn -0.829377 0.495270 -0.258536
vn -0.829377 0.495270 0.258536
vn -0.829377 0.495270 0.258536
vn -0.829377 0.495270 0.258536
vn -0.829377 0.495270 0.258536
vn -0.614078 0.352136 0.706334
vn -0.614078 0.352136 0.706334
vn -0.614078 0.352136 0.706334
vn -0.614078 0.352136 0.706334
vn -0.241168 0.104222 0.964871
vn -0.241168 0.104222 0.964871
vn -0.241168 0.104222 0.964871
vn -0.241168 0.104222 0.964871
vn 0.189430 -0.182045 0.964871
vn 0.189430 -0.182045 0.964871
vn 0.189430 -0.182045 0.964871
vn 0.189430 -0.182045 0.964871
vn 0.562340 -0.429960 0.706334
vn 0.562340 -0.429960 0.706334
vn 0.562340 -0.429960 0.706334
vn 0.562340 -0.429960 0.706334
vn 0.777639 -0.573093 0.258536
vn 0.777639 -0.573093 0.258536
vn 0.777640 -0.573093 0.258536
vn 0.777640 -0.573093 0.258536
vn 0.777639 -0.573093 -0.258536
vn 0.777639 -0.573093 -0.258536
vn 0.777640 -0.573093 -0.258536
vn 0.777640 -0.573093 -0.258536
vn -0.553630 -0.832763 0.000000
vn -0.553630 -0.832763 0.000000
vn -0.553630 -0.832763 0.000000
vn -0.553630 -0.832763 0.000000
vn -0.553630 -0.832763 0.000000
vn -0.553630 -0.832763 0.000000
vn -0.553630 -0.832763 0.000000
vn -0.553630 -0.832763 0.000000
vn -0.553630 -0.832763 0.000000
vn -0.553630 -0.832763 0.000000
vn -0.553630 -0.832763 0.000000
vn -0.553630 -0.832763 0.000000
vn -0.553630 -0.832763 0.000000
vn 0.553630 0.832763 0.000000
vn 0.553630 0.832763 0.000000
vn 0.553630 0.832763 -0.000000
vn 0.553630 0.832763 -0.000000
vn 0.553630 0.832763 -0.000000
vn 0.553630 0.832763 0.000000
vn 0.553630 0.832763 0.000000
vn 0.553630 0.832763 0.000000
vn 0.553630 0.832763 0.000000
vn 0.553630 0.832763 -0.000000
vn 0.553630 0.832763 -0.000000
vn 0.553630 0.832763 0.000000
vn 0.553630 0.832763 0.000000
s off
g group2 pCylinder1
usemtl blinn1SG
f 102/156/237 103/157/238 115/170/239 114/169/240
f 103/157/241 104/158/242 116/171/243 115/170/244
f 104/158/245 105/159/246 117/172/247 116/171/248
f 105/159/249 106/160/250 118/173/251 117/172/252
f 106/160/253 107/161/254 119/174/255 118/173/256
f 107/161/257 108/162/258 120/175/259 119/174/260
f 108/162/261 109/163/262 121/176/263 120/175/264
f 109/163/265 110/164/266 122/177/267 121/176/268
f 110/164/269 111/165/270 123/178/271 122/177/272
f 111/165/273 112/166/274 124/179/275 123/178/276
f 112/166/277 113/167/278 125/180/279 124/179/280
f 113/167/281 102/168/282 114/181/283 125/180/284
s 1
f 103/145/285 102/144/286 126/194/287
f 104/146/288 103/145/285 126/194/287
f 105/147/289 104/146/288 126/194/287
f 106/148/290 105/147/289 126/194/287
f 107/149/291 106/148/290 126/194/287
f 108/150/292 107/149/291 126/194/287
f 109/151/293 108/150/292 126/194/287
f 110/152/294 109/151/293 126/194/287
f 111/153/295 110/152/294 126/194/287
f 112/154/296 111/153/295 126/194/287
f 113/155/297 112/154/296 126/194/287
f 102/144/286 113/155/297 126/194/287
s 2
f 114/192/298 115/191/299 127/195/300
f 115/191/299 116/190/301 127/195/300
f 116/190/301 117/189/302 127/195/300
f 117/189/302 118/188/303 127/195/300
f 118/188/303 119/187/304 127/195/300
f 119/187/304 120/186/305 127/195/300
f 120/186/305 121/185/306 127/195/300
f 121/185/306 122/184/307 127/195/300
f 122/184/307 123/183/308 127/195/300
f 123/183/308 124/182/309 127/195/300
f 124/182/309 125/193/310 127/195/300
f 125/193/310 114/192/298 127/195/300
