# This file uses centimeters as units for non-parametric coordinates.

mtllib 03_01_LForeArm.mtl
g default
v 0.163782 -11.367554 12.481127
v 3.390062 10.526865 12.481127
v 0.163778 -11.367554 -9.649711
v 3.390058 10.526865 -9.649712
v 52.799129 -23.846931 5.665564
v 53.998660 -15.985161 5.665565
v 52.799127 -23.846931 -2.834169
v 53.998659 -15.985161 -2.834170
vt 0.485801 0.645558
vt 0.485801 0.688745
vt 0.442614 0.688745
vt 0.442614 0.645558
vt 0.490064 0.538503
vt 0.488357 0.581656
vt 0.383810 0.540706
vt 0.384501 0.525202
vt 0.363445 0.564485
vt 0.375973 0.555325
vt 0.467954 0.619720
vt 0.432962 0.645031
vt 0.384501 0.508616
vt 0.490064 0.495315
vn -0.989317 0.145782 0.000000
vn -0.989317 0.145782 0.000000
vn -0.989317 0.145782 0.000000
vn -0.989317 0.145782 0.000000
vn 0.124020 -0.018446 -0.992108
vn 0.124020 -0.018446 -0.992108
vn 0.124020 -0.018446 -0.992108
vn 0.124020 -0.018446 -0.992108
vn 0.124020 -0.018446 0.992108
vn 0.124020 -0.018446 0.992108
vn 0.124020 -0.018446 0.992108
vn 0.124020 -0.018446 0.992108
vn -0.230696 -0.973026 0.000000
vn -0.230696 -0.973026 0.000000
vn -0.230696 -0.973026 0.000000
vn -0.230696 -0.973026 0.000000
vn 0.464045 0.885812 -0.000000
vn 0.464045 0.885812 -0.000000
vn 0.464045 0.885812 -0.000000
vn 0.464045 0.885812 -0.000000
s off
g polySurface18 polySurface7 Cube
usemtl CubeSG
f 1/1/1 2/2/2 4/3/3 3/4/4
f 3/5/5 4/6/6 8/7/7 7/8/8
f 5/9/9 6/10/10 2/11/11 1/12/12
f 3/5/13 7/8/14 5/13/15 1/14/16
f 8/7/17 4/6/18 2/11/19 6/10/20
