# This file uses centimeters as units for non-parametric coordinates.

mtllib 03_02_LHand.mtl
g default
v 24.491574 -19.167508 5.479521
v 15.192260 2.550058 10.475320
v 24.491572 -19.167508 -5.220145
v 15.192257 2.550058 -10.215939
v 0.967752 3.525864 -4.120173
v 0.967754 3.525864 4.379563
v -0.231779 -4.335906 -4.120172
v -0.231778 -4.335906 4.379562
vt 0.896564 0.796969
vt 0.909801 0.819132
vt 0.872207 0.824192
vt 0.868013 0.806834
vt 0.885905 0.774808
vt 0.825152 0.809271
vt 0.909801 0.850590
vt 0.825483 0.839135
vt 0.442614 0.708005
vt 0.442614 0.691418
vt 0.498876 0.689271
vt 0.498876 0.710151
vn 0.068439 0.997655 -0.000000
vn 0.068439 0.997655 -0.000000
vn 0.068439 0.997655 -0.000000
vn 0.068439 0.997655 -0.000000
vn -0.266646 -0.231049 -0.935690
vn -0.266646 -0.231049 -0.935690
vn -0.266645 -0.231049 -0.935690
vn -0.266645 -0.231049 -0.935690
vn -0.266645 -0.231049 0.935691
vn -0.266645 -0.231049 0.935691
vn -0.266645 -0.231049 0.935691
vn -0.266645 -0.231049 0.935690
vn -0.514434 -0.857530 0.000000
vn -0.514434 -0.857530 0.000000
vn -0.514434 -0.857530 0.000000
vn -0.514434 -0.857530 0.000000
vn 0.919271 0.393625 -0.000000
vn 0.919271 0.393625 -0.000000
vn 0.919271 0.393625 -0.000000
vn 0.919271 0.393625 -0.000000
s off
g polySurface19 polySurface7 Cube
usemtl CubeSG
f 5/1/1 6/2/2 2/3/3 4/4/4
f 7/5/5 5/1/6 4/4/7 3/6/8
f 6/2/9 8/7/10 1/8/11 2/3/12
f 8/9/13 7/10/14 3/11/15 1/12/16
f 3/6/17 4/4/18 2/3/19 1/8/20
