# This file uses centimeters as units for non-parametric coordinates.

mtllib 04_00_RUpperArm.mtl
g default
v -87.864791 -39.637619 -41.861997
v -82.873926 -53.245651 30.011655
v -100.950553 15.080810 3.849571
v -96.429620 2.590823 31.101120
v -6.970927 11.122406 2.251136
v -1.217031 -7.081020 -16.058568
v 3.698589 -11.829626 9.160432
v -2.922620 7.211650 9.101153
vt 0.547947 0.697227
vt 0.647066 0.888563
vt 0.709738 0.772347
vt 0.591743 0.654244
vt 0.824626 0.857420
vt 0.756207 0.748861
vt 0.604386 0.588139
vt 0.801486 0.667254
vt 0.824626 0.534250
vt 0.648454 0.550603
vt 0.595665 0.634569
vn -0.003610 0.659225 -0.751937
vn -0.003610 0.659225 -0.751937
vn -0.003610 0.659226 -0.751937
vn -0.003610 0.659225 -0.751937
vn -0.968981 -0.245503 0.028344
vn -0.968981 -0.245503 0.028344
vn -0.968981 -0.245503 0.028344
vn -0.968981 -0.245503 0.028344
vn 0.389088 -0.897107 -0.209309
vn 0.389088 -0.897107 -0.209309
vn 0.389088 -0.897107 -0.209309
vn 0.389088 -0.897107 -0.209309
vn 0.220126 0.045910 0.974390
vn 0.220126 0.045910 0.974390
vn 0.220126 0.045910 0.974390
vn 0.220126 0.045910 0.974390
vn 0.050000 0.904915 0.422644
vn 0.050000 0.904915 0.422644
vn 0.050000 0.904915 0.422644
vn 0.050000 0.904915 0.422644
s off
g polySurface13 polySurface1 Cube
usemtl CubeSG
f 6/1/1 1/2/2 3/3/3 5/4/4
f 2/5/5 4/6/6 3/3/7 1/2/8
f 7/7/9 2/8/10 1/9/11 6/10/12
f 8/11/13 4/6/14 2/8/15 7/7/16
f 5/4/17 3/3/18 4/6/19 8/11/20
