# This file uses centimeters as units for non-parametric coordinates.

mtllib 04_01_RForeArm.mtl
g default
v 1.488596 -11.616070 10.981773
v -1.737684 10.278350 10.981774
v 1.488580 -11.616070 -11.149065
v -1.737700 10.278350 -11.149065
v -51.146765 -24.095446 4.166230
v -52.346297 -16.233677 4.166228
v -51.146766 -24.095446 -4.333506
v -52.346298 -16.233677 -4.333505
vt 0.485801 0.645558
vt 0.442614 0.645558
vt 0.442614 0.688745
vt 0.485801 0.688745
vt 0.490064 0.538503
vt 0.384501 0.525202
vt 0.383810 0.540706
vt 0.488357 0.581656
vt 0.363445 0.564485
vt 0.432962 0.645031
vt 0.467954 0.619720
vt 0.375973 0.555325
vt 0.490064 0.495315
vt 0.384501 0.508616
vn 0.989317 0.145782 -0.000001
vn 0.989317 0.145782 -0.000001
vn 0.989317 0.145782 -0.000001
vn 0.989317 0.145782 -0.000001
vn -0.124020 -0.018446 -0.992108
vn -0.124020 -0.018446 -0.992108
vn -0.124020 -0.018446 -0.992108
vn -0.124020 -0.018446 -0.992108
vn -0.124020 -0.018446 0.992108
vn -0.124020 -0.018446 0.992108
vn -0.124020 -0.018446 0.992108
vn -0.124020 -0.018446 0.992108
vn 0.230696 -0.973026 -0.000000
vn 0.230696 -0.973026 -0.000000
vn 0.230696 -0.973026 -0.000000
vn 0.230696 -0.973026 -0.000000
vn -0.464045 0.885812 0.000000
vn -0.464045 0.885812 0.000000
vn -0.464045 0.885812 0.000000
vn -0.464045 0.885812 0.000000
s off
g polySurface16 polySurface11 Cube
usemtl CubeSG
f 1/1/1 3/2/2 4/3/3 2/4/4
f 3/5/5 7/6/6 8/7/7 4/8/8
f 5/9/9 1/10/10 2/11/11 6/12/12
f 3/5/13 1/13/14 5/14/15 7/6/16
f 8/7/17 6/12/18 2/11/19 4/8/20
