# This file uses centimeters as units for non-parametric coordinates.

mtllib 05_01_LLeg.mtl
g default
v -11.296911 -83.850604 10.565794
v -15.966040 -0.059598 15.234922
v -15.966046 -0.059598 -15.234976
v 9.834729 -83.850604 10.565790
v 14.503860 -0.059598 15.234916
v 14.503855 -0.059598 -15.234981
v -7.257665 -67.213159 12.900357
v -6.352584 -81.209546 -8.867559
v 4.890390 -81.209546 -8.867561
v 5.083798 -67.213159 12.900354
v 6.185756 -75.664418 41.165681
v 4.934029 -83.057838 41.498034
v -6.396194 -83.057838 41.498036
v -7.647922 -75.664418 41.165684
vt 0.836156 0.429101
vt 0.846313 0.343453
vt 0.891609 0.343900
vt 0.891609 0.436643
vt 0.865852 0.614623
vt 0.884612 0.714821
vt 0.825152 0.714821
vt 0.843912 0.614623
vt 0.748727 0.445635
vt 0.744456 0.344649
vt 0.795106 0.343222
vt 0.804834 0.431729
vt 0.884612 0.774281
vt 0.825152 0.774281
vt 0.778653 0.463678
vt 0.817416 0.482939
vt 0.815664 0.492847
vt 0.830849 0.480742
vt 0.834439 0.492252
vt 0.866443 0.455676
vt 0.875501 0.576352
vt 0.834264 0.576352
vt 0.843827 0.515969
vt 0.865937 0.515969
vn -0.992386 -0.122180 0.015542
vn -0.992386 -0.122180 0.015542
vn -0.992386 -0.122180 0.015542
vn -0.992386 -0.122180 0.015542
vn -0.000000 -0.078224 -0.996936
vn -0.000000 -0.078224 -0.996936
vn -0.000000 -0.078224 -0.996936
vn -0.000000 -0.078224 -0.996936
vn 0.991515 -0.126431 0.030204
vn 0.991515 -0.126431 0.030204
vn 0.991515 -0.126431 0.030204
vn 0.991515 -0.126431 0.030204
vn 0.000000 -0.034744 0.999396
vn 0.000000 -0.034744 0.999396
vn 0.000000 -0.034744 0.999396
vn 0.000000 -0.034744 0.999396
vn 0.000000 1.000000 0.000000
vn 0.000000 1.000000 0.000000
vn 0.000000 1.000000 0.000000
vn 0.000000 1.000000 0.000000
vn 0.987247 0.137001 0.081076
vn 0.987247 0.137001 0.081076
vn 0.987247 0.137001 0.081076
vn 0.987247 0.137001 0.081076
vn 0.000000 0.044907 0.998991
vn 0.000000 0.044907 0.998991
vn 0.000000 0.044907 0.998991
vn 0.000000 0.044907 0.998991
vn 0.000000 0.958090 0.286467
vn 0.000000 0.958090 0.286467
vn 0.000000 0.958090 0.286467
vn 0.000000 0.958090 0.286467
vn -0.990192 0.107416 0.089343
vn -0.990192 0.107416 0.089343
vn -0.990192 0.107416 0.089343
vn -0.990192 0.107416 0.089343
vn 0.000000 -0.999672 0.025621
vn 0.000000 -0.999672 0.025621
vn 0.000000 -0.999672 0.025621
vn 0.000000 -0.999672 0.025621
vn 0.934887 0.294719 -0.197805
vn 0.934887 0.294719 -0.197805
vn 0.934887 0.294719 -0.197805
vn -0.944115 0.257998 -0.205143
vn -0.944115 0.257998 -0.205143
vn -0.944115 0.257998 -0.205143
vn -0.000000 -0.990891 -0.134665
vn -0.000000 -0.990891 -0.134665
vn -0.000000 -0.990891 -0.134665
vn -0.000000 -0.990891 -0.134665
s off
g polySurface3 Cube
usemtl CubeSG
f 7/1/1 2/2/2 3/3/3 8/4/4
f 8/5/5 3/6/6 6/7/7 9/8/8
f 9/9/9 6/10/10 5/11/11 10/12/12
f 10/12/13 5/11/14 2/2/15 7/1/16
f 6/7/17 3/6/18 2/13/19 5/14/20
f 4/15/21 10/12/22 11/16/23 12/17/24
f 12/17/25 11/16/26 14/18/27 13/19/28
f 10/12/29 7/1/30 14/18/31 11/16/32
f 7/1/33 1/20/34 13/19/35 14/18/36
f 1/21/37 4/22/38 12/23/39 13/24/40
f 10/12/41 4/15/42 9/9/43
f 7/1/44 8/4/45 1/20/46
f 4/22/47 1/21/48 8/5/49 9/8/50
