# This file uses centimeters as units for non-parametric coordinates.

mtllib 06_00_RShigs.mtl
g default
v -6.740281 -138.519228 60.615804
v -2.010606 4.488788 33.022903
v -6.462472 -139.053750 -60.095373
v 3.208867 5.469684 -23.096905
v -54.000844 -133.818316 32.642471
v -23.646147 7.713963 4.275797
v -57.186223 -137.129545 -30.846996
v 26.106884 -134.120214 2.079030
v 34.671769 2.137877 13.714775
v -83.095027 -137.828958 3.514520
vt 0.506139 0.029826
vt 0.329195 0.000263
vt 0.411453 0.318790
vt 0.506139 0.321431
vt 0.224528 0.046248
vt 0.347061 0.357164
vt 0.112202 0.116454
vt 0.052671 0.226990
vt 0.000263 0.320922
vt 0.305203 0.413884
vt 0.009229 0.491210
vt 0.300812 0.494789
vn 0.838687 0.039612 -0.543172
vn 0.838687 0.039612 -0.543172
vn 0.838687 0.039612 -0.543172
vn 0.838687 0.039612 -0.543172
vn -0.556458 0.278227 -0.782908
vn -0.556458 0.278227 -0.782908
vn -0.556458 0.278227 -0.782908
vn -0.556458 0.278227 -0.782908
vn -0.697986 0.281658 0.658395
vn -0.697986 0.281658 0.658395
vn -0.697986 0.281658 0.658395
vn -0.603766 0.224855 0.764792
vn -0.603766 0.224855 0.764792
vn -0.603766 0.224855 0.764792
vn -0.603766 0.224855 0.764792
vn -0.761171 0.313878 -0.567538
vn -0.761171 0.313878 -0.567538
vn -0.761171 0.313879 -0.567538
vn 0.745782 0.002562 0.666185
vn 0.745782 0.002562 0.666185
vn 0.745782 0.002562 0.666185
vn 0.745782 0.002562 0.666185
s off
g polySurface8 Cube
usemtl CubeSG
f 8/1/1 3/2/2 4/3/3 9/4/4
f 3/2/5 7/5/6 6/6/7 4/3/8
f 10/7/9 5/8/10 6/6/11
f 5/8/12 1/9/13 2/10/14 6/6/15
f 7/5/16 10/7/17 6/6/18
f 1/9/19 8/11/20 9/12/21 2/10/22
