# This file uses centimeters as units for non-parametric coordinates.

mtllib 00_waist.mtl
g default
v 13.091362 10.393642 21.312137
v -13.091352 10.393642 21.312141
v -24.724379 10.393642 0.000004
v -13.091359 10.393642 -21.312138
v 13.091355 10.393642 -21.312140
v 24.724379 10.393642 -0.000000
v 10.054126 0.000000 16.331695
v -10.054118 0.000000 16.331698
v -20.108239 0.000000 0.000003
v -10.054124 -0.000000 -16.331697
v 10.054120 -0.000000 -16.331698
v 20.108239 -0.000000 -0.000000
v 0.000000 -8.729927 0.000001
vt 0.625000 0.033494
vt 0.375000 0.033494
vt 0.250000 0.250000
vt 0.375000 0.466506
vt 0.625000 0.466506
vt 0.750000 0.250000
vt 0.250000 0.500000
vt 0.333333 0.500000
vt 0.416667 0.500000
vt 0.500000 0.500000
vt 0.583333 0.500000
vt 0.666667 0.500000
vt 0.750000 0.500000
vt 0.375000 0.750000
vt 0.416667 0.750000
vt 0.458333 0.750000
vt 0.500000 0.750000
vt 0.541667 0.750000
vt 0.583333 0.750000
vt 0.625000 0.750000
vt 0.500000 1.000000
vn 0.426234 -0.468815 0.773652
vn -0.426234 -0.468815 0.773652
vn -0.361730 -0.662450 0.655982
vn 0.361730 -0.662450 0.655982
vn -0.892201 -0.451639 0.000000
vn -0.747847 -0.663872 0.000000
vn -0.426234 -0.468815 -0.773652
vn -0.361730 -0.662450 -0.655981
vn 0.426234 -0.468815 -0.773652
vn 0.361730 -0.662450 -0.655982
vn 0.892201 -0.451639 -0.000000
vn 0.747847 -0.663872 -0.000000
vn 0.000000 1.000000 -0.000000
vn 0.000000 1.000000 -0.000000
vn 0.000000 1.000000 -0.000000
vn 0.000000 1.000000 -0.000000
vn 0.000000 1.000000 -0.000000
vn 0.000000 1.000000 -0.000000
vn 0.000000 -0.881911 0.471416
vn -0.386781 -0.890900 0.238110
vn -0.386781 -0.890900 -0.238110
vn -0.000000 -0.881911 -0.471416
vn 0.386782 -0.890900 -0.238110
vn 0.386782 -0.890900 0.238110
s 1
g pCone1
usemtl blinn1SG
f 1/7/1 2/8/2 8/15/3 7/14/4
f 2/8/2 3/9/5 9/16/6 8/15/3
f 3/9/5 4/10/7 10/17/8 9/16/6
f 4/10/7 5/11/9 11/18/10 10/17/8
f 5/11/9 6/12/11 12/19/12 11/18/10
f 6/12/11 1/13/1 7/20/4 12/19/12
s off
f 1/1/13 6/6/14 5/5/15 4/4/16 3/3/17 2/2/18
s 1
f 7/14/4 8/15/3 13/21/19
f 8/15/3 9/16/6 13/21/20
f 9/16/6 10/17/8 13/21/21
f 10/17/8 11/18/10 13/21/22
f 11/18/10 12/19/12 13/21/23
f 12/19/12 7/20/4 13/21/24
