# This file uses centimeters as units for non-parametric coordinates.

mtllib 00_body_back.mtl
g default
v 0.133276 0.320304 -0.648363
v 0.266517 0.110632 -0.193215
v 0.169139 -0.615363 -0.256274
v 0.095749 0.247091 -0.192233
v 0.148263 -0.601924 -0.582007
v 0.132418 0.036272 -1.260419
v 0.102137 -0.528826 -1.040872
v 0.112901 0.240248 -0.983788
v 0.137416 -0.237620 -1.287397
v 0.305271 0.193550 -0.662685
v 0.276738 0.163294 -1.000200
v 0.310868 -0.366736 -0.215403
v 0.123921 0.294390 -0.375135
v 0.360509 -0.371816 -0.342319
v 0.282969 -0.553150 -0.247042
v 0.179840 0.214258 -0.195386
v 0.160291 -0.629955 -0.399288
v 0.243065 0.279141 -0.643875
v 0.167014 -0.640136 -1.065799
v 0.198011 -0.714652 -0.625702
v 0.099150 0.145533 -1.251504
v 0.240442 -0.244224 -1.281699
v 0.105493 -0.419566 -1.300262
v 0.215701 0.222063 -0.993034
v 0.322305 0.106888 -0.395572
v 0.226458 0.059782 -1.184860
v 0.122063 -0.125107 -1.237616
v 0.295131 -0.092254 -0.183411
v 0.297481 -0.585934 -0.415659
v 0.225008 0.251885 -0.368754
v 0.184645 0.126918 -1.155183
v 0.180743 -0.452747 -1.294564
v 0.345207 -0.103665 -0.328070
v 0.218921 -0.164497 -1.251763
v -0.133276 0.320304 -0.648363
v -0.266517 0.110632 -0.193215
v -0.169138 -0.615363 -0.256274
v -0.095749 0.247091 -0.192233
v -0.148263 -0.601925 -0.582007
v -0.132418 0.036272 -1.260419
v -0.102137 -0.528826 -1.040872
v -0.112901 0.240248 -0.983788
v -0.137416 -0.237620 -1.287397
v -0.305271 0.193550 -0.662685
v -0.276738 0.163294 -1.000200
v -0.310868 -0.366736 -0.215403
v -0.123921 0.294390 -0.375135
v -0.360509 -0.371817 -0.342319
v -0.282969 -0.553151 -0.247042
v -0.179840 0.214258 -0.195386
v -0.160291 -0.629955 -0.399287
v -0.243065 0.279141 -0.643875
v -0.167014 -0.640136 -1.065799
v -0.198010 -0.714653 -0.625702
v -0.099150 0.145533 -1.251504
v -0.240442 -0.244223 -1.281699
v -0.105493 -0.419566 -1.300262
v -0.215701 0.222063 -0.993034
v -0.322305 0.106888 -0.395572
v -0.226458 0.059782 -1.184860
v -0.122063 -0.125107 -1.237615
v -0.295131 -0.092254 -0.183411
v -0.297481 -0.585934 -0.415659
v -0.225008 0.251885 -0.368754
v -0.184645 0.126918 -1.155183
v -0.180743 -0.452747 -1.294564
v -0.345207 -0.103665 -0.328070
v -0.218921 -0.164497 -1.251763
v -0.000000 0.246391 -0.189611
v -0.000000 -0.615090 -0.254167
v -0.000000 0.320540 -0.645781
v -0.000000 -0.611394 -0.569789
v 0.000000 -0.248167 -1.282767
v -0.000000 -0.529045 -1.039514
v -0.000000 0.240974 -0.981552
v 0.000000 -0.629442 -0.397537
v -0.000000 0.293741 -0.372518
v -0.000000 0.139087 -1.284192
v -0.000000 -0.419683 -1.297293
v 0.000000 -0.169431 -1.242294
v 0.148649 0.191577 -0.007371
v 0.253529 0.102973 -0.030364
v 0.299295 -0.089308 -0.041450
v -0.000000 0.217898 0.006895
v 0.066855 0.218406 0.004461
v 0.319404 -0.367032 -0.065716
v -0.253529 0.102973 -0.030364
v -0.148649 0.191577 -0.007371
v -0.299295 -0.089308 -0.041450
v -0.066855 0.218406 0.004461
v -0.319404 -0.367032 -0.065716
v 0.130839 -0.629447 -0.062974
v -0.000000 -0.629101 -0.061002
v 0.289506 -0.565176 -0.058606
v -0.130839 -0.629447 -0.062974
v -0.289506 -0.565176 -0.058606
v -0.250057 0.027300 -1.014592
v -0.255167 -0.217571 -1.018947
v -0.301063 -0.042905 -0.646576
v -0.316821 -0.307847 -0.622934
v 0.299187 -0.040323 -0.660110
v 0.310567 -0.298689 -0.663107
v 0.250672 0.026453 -1.010151
v 0.252588 -0.213793 -1.035516
v 0.000615 0.036272 -1.260419
v 0.000000 -0.367032 -0.065716
v -0.136721 0.154694 -0.011009
vn 0.000300 0.995381 0.095998
vn 0.000300 0.995381 0.095998
vn 0.000300 0.995381 0.095998
vn 0.000300 0.995381 0.095998
vn 0.361797 0.925992 0.107899
vn 0.361797 0.925992 0.107899
vn 0.361797 0.925992 0.107899
vn 0.361797 0.925992 0.107899
vn 0.258798 0.943491 -0.206998
vn 0.258798 0.943491 -0.206998
vn 0.258798 0.943491 -0.206998
vn 0.258798 0.943491 -0.206998
vn 0.944586 0.170197 0.280696
vn 0.944586 0.170197 0.280696
vn 0.944586 0.170197 0.280696
vn 0.944586 0.170197 0.280696
vn 0.788020 0.557114 0.262007
vn 0.788020 0.557114 0.262007
vn 0.788020 0.557114 0.262007
vn 0.788020 0.557114 0.262007
vn 0.708463 0.689864 0.148892
vn 0.708463 0.689864 0.148892
vn 0.708463 0.689864 0.148892
vn 0.708463 0.689864 0.148892
vn 0.982278 0.184796 0.031299
vn 0.982278 0.184796 0.031299
vn 0.982278 0.184796 0.031299
vn 0.982278 0.184796 0.031299
vn 0.000000 0.968116 0.250504
vn 0.000000 0.968116 0.250504
vn 0.000000 0.968116 0.250504
vn 0.000000 0.968116 0.250504
vn -0.002900 0.989617 0.143702
vn -0.002900 0.989617 0.143702
vn -0.002900 0.989617 0.143702
vn -0.002900 0.989617 0.143702
vn 0.347199 0.920898 0.177200
vn 0.347199 0.920898 0.177200
vn 0.347199 0.920898 0.177200
vn 0.347199 0.920898 0.177200
vn 0.356883 0.889456 0.285486
vn 0.356883 0.889456 0.285486
vn 0.356883 0.889456 0.285486
vn 0.356883 0.889456 0.285486
vn 0.739697 0.657397 -0.143799
vn 0.739697 0.657397 -0.143799
vn 0.739697 0.657397 -0.143799
vn 0.739697 0.657397 -0.143799
vn 0.624490 0.411093 -0.664089
vn 0.624490 0.411093 -0.664089
vn 0.624490 0.411093 -0.664089
vn 0.624490 0.411093 -0.664089
vn 0.311898 0.093599 -0.945494
vn 0.311898 0.093599 -0.945494
vn 0.311898 0.093599 -0.945494
vn 0.311898 0.093599 -0.945494
vn 0.353390 0.841577 -0.408489
vn 0.353390 0.841577 -0.408489
vn 0.353390 0.841577 -0.408489
vn 0.353390 0.841577 -0.408489
vn 0.021400 0.945022 -0.326307
vn 0.021400 0.945022 -0.326307
vn 0.021400 0.945022 -0.326307
vn 0.021400 0.945022 -0.326307
vn 0.827451 0.549234 0.116907
vn 0.827451 0.549234 0.116907
vn 0.827451 0.549234 0.116907
vn 0.827451 0.549234 0.116907
vn 0.593013 0.630813 -0.500411
vn 0.593013 0.630813 -0.500411
vn 0.593013 0.630813 -0.500411
vn 0.593013 0.630813 -0.500411
vn 0.938905 0.024500 0.343302
vn 0.938905 0.024500 0.343302
vn 0.938905 0.024500 0.343302
vn 0.938905 0.024500 0.343302
vn 0.996632 0.069202 -0.044001
vn 0.996632 0.069202 -0.044001
vn 0.996632 0.069202 -0.044001
vn 0.996632 0.069202 -0.044001
vn -0.000700 0.972883 -0.231296
vn -0.000700 0.972883 -0.231296
vn -0.000700 0.972883 -0.231296
vn -0.000700 0.972883 -0.231296
vn -0.000300 0.995381 0.095998
vn -0.000300 0.995381 0.095998
vn -0.000300 0.995381 0.095998
vn -0.000300 0.995381 0.095998
vn -0.361797 0.925992 0.107899
vn -0.361797 0.925992 0.107899
vn -0.361797 0.925992 0.107899
vn -0.361797 0.925992 0.107899
vn -0.258798 0.943491 -0.206998
vn -0.258798 0.943491 -0.206998
vn -0.258798 0.943491 -0.206998
vn -0.258798 0.943491 -0.206998
vn -0.944586 0.170197 0.280696
vn -0.944586 0.170197 0.280696
vn -0.944586 0.170197 0.280696
vn -0.944586 0.170197 0.280696
vn -0.788020 0.557114 0.262007
vn -0.788020 0.557114 0.262007
vn -0.788020 0.557114 0.262007
vn -0.788020 0.557114 0.262007
vn -0.708463 0.689864 0.148892
vn -0.708463 0.689864 0.148892
vn -0.708463 0.689864 0.148892
vn -0.708463 0.689864 0.148892
vn -0.982278 0.184796 0.031299
vn -0.982278 0.184796 0.031299
vn -0.982278 0.184796 0.031299
vn -0.982278 0.184796 0.031299
vn 0.000000 0.968116 0.250504
vn 0.000000 0.968116 0.250504
vn 0.000000 0.968116 0.250504
vn 0.000000 0.968116 0.250504
vn 0.002900 0.989617 0.143702
vn 0.002900 0.989617 0.143702
vn 0.002900 0.989617 0.143702
vn 0.002900 0.989617 0.143702
vn -0.347199 0.920898 0.177200
vn -0.347199 0.920898 0.177200
vn -0.347199 0.920898 0.177200
vn -0.347199 0.920898 0.177200
vn -0.356883 0.889456 0.285486
vn -0.356883 0.889456 0.285486
vn -0.356883 0.889456 0.285486
vn -0.356883 0.889456 0.285486
vn -0.739697 0.657397 -0.143799
vn -0.739697 0.657397 -0.143799
vn -0.739697 0.657397 -0.143799
vn -0.739697 0.657397 -0.143799
vn -0.624490 0.411093 -0.664089
vn -0.624490 0.411093 -0.664089
vn -0.624490 0.411093 -0.664089
vn -0.624490 0.411093 -0.664089
vn -0.311898 0.093599 -0.945494
vn -0.311898 0.093599 -0.945494
vn -0.311898 0.093599 -0.945494
vn -0.311898 0.093599 -0.945494
vn -0.353390 0.841577 -0.408489
vn -0.353390 0.841577 -0.408489
vn -0.353390 0.841577 -0.408489
vn -0.353390 0.841577 -0.408489
vn -0.021400 0.945022 -0.326307
vn -0.021400 0.945022 -0.326307
vn -0.021400 0.945022 -0.326307
vn -0.021400 0.945022 -0.326307
vn -0.827451 0.549234 0.116907
vn -0.827451 0.549234 0.116907
vn -0.827451 0.549234 0.116907
vn -0.827451 0.549234 0.116907
vn -0.593013 0.630813 -0.500411
vn -0.593013 0.630813 -0.500411
vn -0.593013 0.630813 -0.500411
vn -0.593013 0.630813 -0.500411
vn -0.938905 0.024500 0.343302
vn -0.938905 0.024500 0.343302
vn -0.938905 0.024500 0.343302
vn -0.938905 0.024500 0.343302
vn -0.996632 0.069202 -0.044001
vn -0.996632 0.069202 -0.044001
vn -0.996632 0.069202 -0.044001
vn -0.996632 0.069202 -0.044001
vn 0.000700 0.972883 -0.231296
vn 0.000700 0.972883 -0.231296
vn 0.000700 0.972883 -0.231296
vn 0.000700 0.972883 -0.231296
vn -0.003000 -0.997342 -0.072803
vn -0.003000 -0.997342 -0.072803
vn -0.003000 -0.997342 -0.072803
vn -0.003000 -0.997342 -0.072803
vn -0.001200 -0.994926 0.100603
vn -0.001200 -0.994926 0.100603
vn -0.001200 -0.994926 0.100603
vn -0.001200 -0.994926 0.100603
vn 0.389082 -0.909657 0.145393
vn 0.389082 -0.909657 0.145393
vn 0.389082 -0.909657 0.145393
vn 0.389082 -0.909657 0.145393
vn 0.421999 -0.906197 -0.026900
vn 0.421999 -0.906197 -0.026900
vn 0.421999 -0.906197 -0.026900
vn 0.421999 -0.906197 -0.026900
vn -0.890085 -0.455792 0.001500
vn -0.890085 -0.455792 0.001500
vn -0.890085 -0.455792 0.001500
vn -0.890085 -0.455792 0.001500
vn -0.240809 -0.921533 0.304611
vn -0.240809 -0.921533 0.304611
vn -0.240809 -0.921533 0.304611
vn -0.240809 -0.921533 0.304611
vn 0.022900 -0.991315 -0.129502
vn 0.022900 -0.991315 -0.129502
vn 0.022900 -0.991315 -0.129502
vn 0.022900 -0.991315 -0.129502
vn 0.029101 -0.985628 -0.166405
vn 0.029101 -0.985628 -0.166405
vn 0.029101 -0.985628 -0.166405
vn 0.029101 -0.985628 -0.166405
vn -0.006600 -0.921038 -0.389416
vn -0.006600 -0.921038 -0.389416
vn -0.006600 -0.921038 -0.389416
vn -0.006600 -0.921038 -0.389416
vn -0.685007 -0.611706 -0.395704
vn -0.685007 -0.611706 -0.395704
vn -0.685007 -0.611706 -0.395704
vn -0.685007 -0.611706 -0.395704
vn -0.034699 0.080297 -0.996167
vn -0.034699 0.080297 -0.996167
vn -0.034699 0.080297 -0.996167
vn -0.034699 0.080297 -0.996167
vn -0.088502 0.419309 -0.903520
vn -0.088502 0.419309 -0.903520
vn -0.088502 0.419309 -0.903520
vn -0.088502 0.419309 -0.903520
vn 0.051101 0.390905 -0.919012
vn 0.051101 0.390905 -0.919012
vn 0.051101 0.390905 -0.919012
vn 0.051101 0.390905 -0.919012
vn 0.074397 0.048198 -0.996063
vn 0.074397 0.048198 -0.996063
vn 0.074397 0.048198 -0.996063
vn 0.074397 0.048198 -0.996063
vn 0.932024 -0.273807 0.237406
vn 0.932024 -0.273807 0.237406
vn 0.932024 -0.273807 0.237406
vn 0.932024 -0.273807 0.237406
vn 0.988143 -0.145406 -0.049302
vn 0.988143 -0.145406 -0.049302
vn 0.988143 -0.145406 -0.049302
vn 0.988143 -0.145406 -0.049302
vn 0.003000 -0.997342 -0.072803
vn 0.003000 -0.997342 -0.072803
vn 0.003000 -0.997342 -0.072803
vn 0.003000 -0.997342 -0.072803
vn 0.001200 -0.994926 0.100603
vn 0.001200 -0.994926 0.100603
vn 0.001200 -0.994926 0.100603
vn 0.001200 -0.994926 0.100603
vn -0.389082 -0.909657 0.145393
vn -0.389082 -0.909657 0.145393
vn -0.389082 -0.909657 0.145393
vn -0.389082 -0.909657 0.145393
vn -0.421999 -0.906197 -0.026900
vn -0.421999 -0.906197 -0.026900
vn -0.421999 -0.906197 -0.026900
vn -0.421999 -0.906197 -0.026900
vn 0.890085 -0.455792 0.001500
vn 0.890085 -0.455792 0.001500
vn 0.890085 -0.455792 0.001500
vn 0.890085 -0.455792 0.001500
vn 0.240809 -0.921533 0.304611
vn 0.240809 -0.921533 0.304611
vn 0.240809 -0.921533 0.304611
vn 0.240809 -0.921533 0.304611
vn -0.022900 -0.991315 -0.129502
vn -0.022900 -0.991315 -0.129502
vn -0.022900 -0.991315 -0.129502
vn -0.022900 -0.991315 -0.129502
vn -0.029101 -0.985628 -0.166405
vn -0.029101 -0.985628 -0.166405
vn -0.029101 -0.985628 -0.166405
vn -0.029101 -0.985628 -0.166405
vn 0.006600 -0.921038 -0.389416
vn 0.006600 -0.921038 -0.389416
vn 0.006600 -0.921038 -0.389416
vn 0.006600 -0.921038 -0.389416
vn 0.685007 -0.611706 -0.395704
vn 0.685007 -0.611706 -0.395704
vn 0.685007 -0.611706 -0.395704
vn 0.685007 -0.611706 -0.395704
vn 0.034699 0.080297 -0.996167
vn 0.034699 0.080297 -0.996167
vn 0.034699 0.080297 -0.996167
vn 0.034699 0.080297 -0.996167
vn 0.088502 0.419309 -0.903520
vn 0.088502 0.419309 -0.903520
vn 0.088502 0.419309 -0.903520
vn 0.088502 0.419309 -0.903520
vn -0.051101 0.390905 -0.919012
vn -0.051101 0.390905 -0.919012
vn -0.051101 0.390905 -0.919012
vn -0.051101 0.390905 -0.919012
vn -0.074397 0.048198 -0.996063
vn -0.074397 0.048198 -0.996063
vn -0.074397 0.048198 -0.996063
vn -0.074397 0.048198 -0.996063
vn -0.932024 -0.273807 0.237406
vn -0.932024 -0.273807 0.237406
vn -0.932024 -0.273807 0.237406
vn -0.932024 -0.273807 0.237406
vn -0.988143 -0.145406 -0.049302
vn -0.988143 -0.145406 -0.049302
vn -0.988143 -0.145406 -0.049302
vn -0.988143 -0.145406 -0.049302
vn 0.988427 -0.092213 -0.120455
vn 0.990785 -0.018002 -0.134241
vn 0.989333 -0.002025 -0.145655
vn -0.000504 -0.047656 -0.998864
vn 0.000228 -0.089720 -0.995967
vn -0.069728 -0.091948 -0.993320
vn -0.140549 -0.047644 -0.988927
vn -0.994907 0.023262 -0.098080
vn -0.993337 -0.038111 -0.108763
vn -0.992147 0.015512 -0.124114
vn -0.991515 0.044855 -0.122005
vn -0.006389 -0.029180 0.999554
vn -0.000057 -0.044938 0.998990
vn -0.007148 0.018687 0.999800
vn -0.011666 0.018829 0.999755
vn -0.976805 -0.097680 -0.190554
vn -0.978734 -0.126310 -0.161637
vn -0.956789 -0.234214 -0.172333
vn -0.938861 -0.245340 -0.241555
vn -0.990751 -0.016809 -0.134650
vn -0.988536 -0.090566 -0.120808
vn -0.989308 -0.000894 -0.145837
vn -0.983791 -0.122113 -0.131314
vn -0.989468 -0.106015 -0.098557
vn -0.967274 -0.215373 -0.134145
vn -0.983349 -0.165001 -0.076161
vn -0.983349 -0.165001 -0.076161
vn 0.989872 -0.105226 -0.095299
vn 0.984104 -0.122204 -0.128860
vn 0.967871 -0.213664 -0.132564
vn 0.983831 -0.164312 -0.071263
vn 0.983831 -0.164312 -0.071263
vn 0.991397 0.044346 -0.123147
vn 0.992147 0.014947 -0.124180
vn 0.993499 -0.035553 -0.108149
vn 0.994826 0.022007 -0.099184
vn 0.976643 -0.100965 -0.189671
vn 0.978992 -0.125846 -0.160432
vn 0.956466 -0.233553 -0.175003
vn 0.938972 -0.248070 -0.238312
vn -0.000093 -0.111862 -0.993724
vn -0.037626 -0.111719 -0.993027
vn 0.141263 -0.046711 -0.988870
vn 0.070098 -0.091742 -0.993313
vn 0.037826 -0.111846 -0.993005
vn 0.000673 -0.127175 0.991880
vn -0.072105 -0.126823 0.989301
vn -0.056286 -0.111140 0.992210
vn -0.054153 -0.109023 0.992563
vn 0.000000 0.017985 0.999838
vn 0.007148 0.018687 0.999800
vn 0.006389 -0.029180 0.999554
vn 0.011666 0.018829 0.999755
vn 0.033652 -0.095532 0.994857
vn 0.056943 -0.111742 0.992105
vn 0.072478 -0.126861 0.989269
vn -0.043098 -0.098044 0.994249
vn -0.034089 -0.095758 0.994821
vn 0.042620 -0.097777 0.994295
s off
g polySurface20 WolfMesh
usemtl WolfMain
f 1//1 71//2 77//3 13//4
f 1//5 13//6 30//7 18//8
f 8//9 1//10 18//11 24//12
f 2//13 28//14 33//15 25//16
f 2//17 25//18 30//19 16//20
f 2//21 16//22 81//23 82//24
f 2//25 82//26 83//27 28//28
f 4//29 13//30 77//31 69//32
f 4//33 69//34 84//35 85//36
f 4//37 85//38 81//39 16//40
f 4//41 16//42 30//43 13//44
f 11//45 24//46 18//47 10//48
f 6//49 21//50 31//51 26//52
f 6//53 26//54 34//55 27//56
f 8//57 24//58 31//59 21//60
f 8//61 21//62 78//63 75//64
f 10//65 18//66 30//67 25//68
f 11//69 26//70 31//71 24//72
f 12//73 14//74 33//75 28//76
f 12//77 28//78 83//79 86//80
f 8//81 75//82 71//83 1//84
f 35//85 47//86 77//87 71//88
f 35//89 52//90 64//91 47//92
f 42//93 58//94 52//95 35//96
f 36//97 59//98 67//99 62//100
f 36//101 50//102 64//103 59//104
f 36//105 87//106 88//107 50//108
f 36//109 62//110 89//111 87//112
f 38//113 69//114 77//115 47//116
f 38//117 90//118 84//119 69//120
f 38//121 50//122 88//123 90//124
f 38//125 47//126 64//127 50//128
f 45//129 44//130 52//131 58//132
f 40//133 60//134 65//135 55//136
f 40//137 61//138 68//139 60//140
f 42//141 55//142 65//143 58//144
f 42//145 75//146 78//147 55//148
f 44//149 59//150 64//151 52//152
f 45//153 58//154 65//155 60//156
f 46//157 62//158 67//159 48//160
f 46//161 91//162 89//163 62//164
f 42//165 35//166 71//167 75//168
usemtl WolfMain_Light
f 3//169 92//170 93//171 70//172
f 3//173 70//174 76//175 17//176
f 3//177 17//178 29//179 15//180
f 3//181 15//182 94//183 92//184
f 7//185 19//186 20//187 5//188
f 5//189 20//190 29//191 17//192
f 5//193 17//194 76//195 72//196
f 7//197 5//198 72//199 74//200
f 7//201 74//202 79//203 23//204
f 7//205 23//206 32//207 19//208
f 9//209 23//210 79//211 73//212
f 9//213 73//214 80//215 27//216
f 9//217 27//218 34//219 22//220
f 9//221 22//222 32//223 23//224
f 12//225 15//226 29//227 14//228
f 12//229 86//230 94//231 15//232
f 37//233 70//234 93//235 95//236
f 37//237 51//238 76//239 70//240
f 37//241 49//242 63//243 51//244
f 37//245 95//246 96//247 49//248
f 41//249 39//250 54//251 53//252
f 39//253 51//254 63//255 54//256
f 39//257 72//258 76//259 51//260
f 41//261 74//262 72//263 39//264
f 41//265 57//266 79//267 74//268
f 41//269 53//270 66//271 57//272
f 43//273 73//274 79//275 57//276
f 43//277 61//278 80//279 73//280
f 43//281 56//282 68//283 61//284
f 43//285 57//286 66//287 56//288
f 46//289 48//290 63//291 49//292
f 46//293 49//294 96//295 91//296
s 1
usemtl WolfMain
f 11//297 103//298 26//299
s 2
f 78//300 105//301 40//302 55//303
s 3
f 59//304 44//305 99//306 67//307
s 4
usemtl WolfMain_Light
f 86//308 106//309 92//310 94//311
s 3
f 48//312 100//313 54//314 63//315
usemtl WolfMain
f 67//307 99//306 100//313 48//312
f 97//316 45//317 60//318
f 98//319 97//316 60//318 68//320
usemtl WolfMain_Light
f 53//321 98//319 68//320 56//322 66//323
usemtl WolfMain
f 99//306 44//305 45//317 97//316
f 100//313 99//306 97//316 98//319
usemtl WolfMain_Light
f 54//314 100//313 98//319 53//321
s 1
f 34//324 104//325 19//326 32//327 22//328
usemtl WolfMain
f 103//298 104//325 34//324 26//299
f 33//329 101//330 10//331 25//332
f 33//329 14//333 102//334 101//330
usemtl WolfMain_Light
f 20//335 102//334 14//333 29//336
usemtl WolfMain
f 10//331 101//330 103//298 11//297
f 101//330 102//334 104//325 103//298
usemtl WolfMain_Light
f 19//326 104//325 102//334 20//335
s 2
usemtl WolfMain
f 40//302 105//301 80//337 61//338
f 21//339 6//340 105//301 78//300
f 80//337 105//301 6//340 27//341
s 4
f 106//309 84//342 90//343 88//344 107//345
usemtl WolfMain_Light
f 92//310 106//309 93//346
f 95//347 106//309 91//348 96//349
f 93//346 106//309 95//347
usemtl WolfMain
f 83//350 106//309 86//308
f 106//309 81//351 85//352 84//342
f 106//309 107//345 88//344 87//353 89//354
f 82//355 81//351 106//309 83//350
f 106//309 89//354 91//348
