# This file uses centimeters as units for non-parametric coordinates.

mtllib 04_tail_root.mtl
g default
v 0.094496 -0.486349 -0.205438
v 0.086588 -0.221183 -0.049238
v 0.108441 -0.136151 -0.075072
v 0.072447 0.041098 -0.142442
v 0.123418 -0.638440 -0.540519
v 0.119094 -0.363272 -0.268596
v 0.052808 -0.195214 -0.403093
v 0.112994 -0.788271 -0.453856
v 0.050366 -0.466094 -0.720479
v 0.058679 -0.079886 -0.260960
v 0.088621 -0.365996 -0.109939
v 0.122243 -0.247784 -0.169250
v 0.053803 -0.338512 -0.561095
v 0.123437 -0.480217 -0.422871
v 0.111149 -0.635938 -0.329084
v -0.094496 -0.486348 -0.205438
v -0.086588 -0.221183 -0.049238
v -0.108441 -0.136151 -0.075072
v -0.072447 0.041098 -0.142442
v -0.123423 -0.638437 -0.540519
v -0.119094 -0.363272 -0.268596
v -0.052807 -0.195214 -0.403093
v -0.113003 -0.788268 -0.453856
v -0.050367 -0.466093 -0.720479
v -0.058679 -0.079886 -0.260960
v -0.088621 -0.365995 -0.109939
v -0.122243 -0.247784 -0.169250
v -0.053801 -0.338511 -0.561095
v -0.123438 -0.480214 -0.422871
v -0.111154 -0.635935 -0.329084
v -0.000000 -0.254190 -0.042603
v -0.000000 0.052838 -0.148299
v -0.000006 -0.869785 -0.448540
v -0.000000 -0.524232 -0.203740
v -0.000000 -0.180688 -0.416873
v -0.000000 -0.454494 -0.734069
v -0.000000 -0.063904 -0.269974
v -0.000000 -0.427022 -0.094174
v 0.000001 -0.323762 -0.578207
v -0.000004 -0.742519 -0.279446
v 0.099150 0.158099 -0.010800
v 0.132418 0.048838 -0.019714
v -0.000000 0.151653 -0.043488
v -0.132418 0.048838 -0.019714
v -0.099150 0.158099 -0.010800
v 0.122063 -0.112541 0.003088
v -0.000000 -0.156865 -0.001590
v -0.122063 -0.112541 0.003089
vn 0.949607 0.248602 -0.190901
vn 0.949607 0.248602 -0.190901
vn 0.949607 0.248602 -0.190901
vn 0.949607 0.248602 -0.190901
vn 0.888315 0.124602 -0.442007
vn 0.888315 0.124602 -0.442007
vn 0.888315 0.124602 -0.442007
vn 0.888315 0.124602 -0.442007
vn 0.961912 0.184502 -0.201703
vn 0.961912 0.184502 -0.201703
vn 0.961912 0.184502 -0.201703
vn 0.961912 0.184502 -0.201703
vn 0.173706 0.717526 -0.674524
vn 0.173706 0.717526 -0.674524
vn 0.173706 0.717526 -0.674524
vn 0.173706 0.717526 -0.674524
vn 0.223599 0.686298 -0.692098
vn 0.223599 0.686298 -0.692098
vn 0.223599 0.686298 -0.692098
vn 0.223599 0.686298 -0.692098
vn 0.357392 0.720483 -0.594286
vn 0.357392 0.720483 -0.594286
vn 0.357392 0.720483 -0.594286
vn 0.357392 0.720483 -0.594286
vn 0.322993 0.734684 -0.596587
vn 0.322993 0.734684 -0.596587
vn 0.322993 0.734684 -0.596587
vn 0.322993 0.734684 -0.596587
vn 0.369703 0.692305 -0.619705
vn 0.369703 0.692305 -0.619705
vn 0.369703 0.692305 -0.619705
vn 0.369703 0.692305 -0.619705
vn 0.952610 0.205702 -0.224102
vn 0.952610 0.205702 -0.224102
vn 0.952610 0.205702 -0.224102
vn 0.952610 0.205702 -0.224102
vn 0.949323 0.208705 -0.235006
vn 0.949323 0.208705 -0.235006
vn 0.949323 0.208705 -0.235006
vn 0.949323 0.208705 -0.235006
vn -0.949607 0.248602 -0.190901
vn -0.949607 0.248602 -0.190901
vn -0.949607 0.248602 -0.190901
vn -0.949607 0.248602 -0.190901
vn -0.888315 0.124602 -0.442007
vn -0.888315 0.124602 -0.442007
vn -0.888315 0.124602 -0.442007
vn -0.888315 0.124602 -0.442007
vn -0.961912 0.184502 -0.201703
vn -0.961912 0.184502 -0.201703
vn -0.961912 0.184502 -0.201703
vn -0.961912 0.184502 -0.201703
vn -0.173706 0.717526 -0.674524
vn -0.173706 0.717526 -0.674524
vn -0.173706 0.717526 -0.674524
vn -0.173706 0.717526 -0.674524
vn -0.223599 0.686298 -0.692098
vn -0.223599 0.686298 -0.692098
vn -0.223599 0.686298 -0.692098
vn -0.223599 0.686298 -0.692098
vn -0.357392 0.720483 -0.594286
vn -0.357392 0.720483 -0.594286
vn -0.357392 0.720483 -0.594286
vn -0.357392 0.720483 -0.594286
vn -0.322993 0.734684 -0.596587
vn -0.322993 0.734684 -0.596587
vn -0.322993 0.734684 -0.596587
vn -0.322993 0.734684 -0.596587
vn -0.369703 0.692305 -0.619705
vn -0.369703 0.692305 -0.619705
vn -0.369703 0.692305 -0.619705
vn -0.369703 0.692305 -0.619705
vn -0.952590 0.205798 -0.224098
vn -0.952590 0.205798 -0.224098
vn -0.952590 0.205798 -0.224098
vn -0.952590 0.205798 -0.224098
vn -0.949323 0.208705 -0.235006
vn -0.949323 0.208705 -0.235006
vn -0.949323 0.208705 -0.235006
vn -0.949323 0.208705 -0.235006
vn 0.972672 -0.141096 0.184395
vn 0.972672 -0.141096 0.184395
vn 0.972672 -0.141096 0.184395
vn 0.972672 -0.141096 0.184395
vn 0.989820 -0.057701 0.130103
vn 0.989820 -0.057701 0.130103
vn 0.989820 -0.057701 0.130103
vn 0.989820 -0.057701 0.130103
vn 0.980360 -0.152794 -0.124695
vn 0.980360 -0.152794 -0.124695
vn 0.980360 -0.152794 -0.124695
vn 0.980360 -0.152794 -0.124695
vn 0.942593 -0.128099 0.308398
vn 0.942593 -0.128099 0.308398
vn 0.942593 -0.128099 0.308398
vn 0.942593 -0.128099 0.308398
vn 0.997509 -0.039700 0.058301
vn 0.997509 -0.039700 0.058301
vn 0.997509 -0.039700 0.058301
vn 0.997509 -0.039700 0.058301
vn 0.286100 -0.317700 0.903999
vn 0.286100 -0.317700 0.903999
vn 0.286100 -0.317700 0.903999
vn 0.286100 -0.317700 0.903999
vn 0.612803 -0.570603 0.546703
vn 0.612803 -0.570603 0.546703
vn 0.612803 -0.570603 0.546703
vn 0.612803 -0.570603 0.546703
vn 0.400498 -0.622697 0.672197
vn 0.400498 -0.622697 0.672197
vn 0.400498 -0.622697 0.672197
vn 0.400498 -0.622697 0.672197
vn 0.477395 -0.401896 0.781392
vn 0.477395 -0.401896 0.781392
vn 0.477395 -0.401896 0.781392
vn 0.477395 -0.401896 0.781392
vn 0.167996 -0.430789 0.886678
vn 0.167996 -0.430789 0.886678
vn 0.167996 -0.430789 0.886678
vn 0.167996 -0.430789 0.886678
vn -0.972672 -0.141096 0.184395
vn -0.972672 -0.141096 0.184395
vn -0.972672 -0.141096 0.184395
vn -0.972672 -0.141096 0.184395
vn -0.989820 -0.057701 0.130103
vn -0.989820 -0.057701 0.130103
vn -0.989820 -0.057701 0.130103
vn -0.989820 -0.057701 0.130103
vn -0.980360 -0.152794 -0.124695
vn -0.980360 -0.152794 -0.124695
vn -0.980360 -0.152794 -0.124695
vn -0.980360 -0.152794 -0.124695
vn -0.942593 -0.128099 0.308398
vn -0.942593 -0.128099 0.308398
vn -0.942593 -0.128099 0.308398
vn -0.942593 -0.128099 0.308398
vn -0.997504 -0.039700 0.058400
vn -0.997504 -0.039700 0.058400
vn -0.997504 -0.039700 0.058400
vn -0.997504 -0.039700 0.058400
vn -0.286100 -0.317700 0.903999
vn -0.286100 -0.317700 0.903999
vn -0.286100 -0.317700 0.903999
vn -0.286100 -0.317700 0.903999
vn -0.612803 -0.570603 0.546703
vn -0.612803 -0.570603 0.546703
vn -0.612803 -0.570603 0.546703
vn -0.612803 -0.570603 0.546703
vn -0.400498 -0.622697 0.672197
vn -0.400498 -0.622697 0.672197
vn -0.400498 -0.622697 0.672197
vn -0.400498 -0.622697 0.672197
vn -0.477414 -0.401812 0.781424
vn -0.477414 -0.401812 0.781424
vn -0.477414 -0.401812 0.781424
vn -0.477414 -0.401812 0.781424
vn -0.167996 -0.430789 0.886678
vn -0.167996 -0.430789 0.886678
vn -0.167996 -0.430789 0.886678
vn -0.167996 -0.430789 0.886678
s off
g polySurface22 WolfMesh
usemtl WolfMain
f 13//1 7//2 6//3 14//4
f 41//5 42//6 3//7 4//8
f 10//9 4//10 3//11 12//12
f 43//13 41//14 4//15 32//16
f 37//17 32//18 4//19 10//20
f 39//21 13//22 9//23 36//24
f 37//25 10//26 7//27 35//28
f 39//29 35//30 7//31 13//32
f 13//33 14//34 5//35 9//36
f 10//37 12//38 6//39 7//40
f 28//41 29//42 21//43 22//44
f 45//45 19//46 18//47 44//48
f 25//49 27//50 18//51 19//52
f 43//53 32//54 19//55 45//56
f 37//57 25//58 19//59 32//60
f 39//61 36//62 24//63 28//64
f 37//65 35//66 22//67 25//68
f 39//69 28//70 22//71 35//72
f 28//73 24//74 20//75 29//76
f 25//77 22//78 21//79 27//80
usemtl WolfMain_Light
f 12//81 11//82 1//83 6//84
f 14//85 6//86 1//87 15//88
f 42//89 46//90 2//91 3//92
f 12//93 3//94 2//95 11//96
f 14//97 15//98 8//99 5//100
f 11//101 2//102 31//103 38//104
f 15//105 40//106 33//107 8//108
f 11//109 38//110 34//111 1//112
f 15//113 1//114 34//115 40//116
f 46//117 47//118 31//119 2//120
f 27//121 21//122 16//123 26//124
f 29//125 30//126 16//127 21//128
f 44//129 18//130 17//131 48//132
f 27//133 26//134 17//135 18//136
f 29//137 20//138 23//139 30//140
f 26//141 38//142 31//143 17//144
f 30//145 23//146 33//147 40//148
f 26//149 16//150 34//151 38//152
f 30//153 40//154 34//155 16//156
f 48//157 17//158 31//159 47//160
