# This file uses centimeters as units for non-parametric coordinates.

mtllib 09A_back_left.mtl
g default
v 0.126032 -0.122778 -0.235743
v 0.127561 -0.317108 -0.259503
v 0.051248 -0.099256 -0.469857
v 0.110350 0.085276 -0.233501
v 0.167153 -0.172012 0.125462
v 0.109405 -0.162798 0.386153
v 0.141516 -0.366850 0.070441
v 0.142850 0.078008 0.101621
v 0.048802 0.325163 0.071071
v 0.035675 0.242295 0.289621
v 0.014339 0.314091 -0.249703
v -0.008488 0.239442 -0.377611
v 0.085973 0.066454 0.362955
v 0.091191 -0.352784 0.309063
v 0.039115 -0.257367 -0.484115
v 0.039229 0.090274 -0.410039
v -0.097157 -0.410680 -0.529044
v 0.025223 -0.426720 -0.508994
v -0.146557 -0.531348 -0.318775
v -0.133187 -0.615646 -0.054836
v -0.036775 -0.625670 0.084305
v 0.072577 -0.632917 0.070261
v 0.135687 -0.594099 -0.053866
v 0.115724 -0.531235 -0.326272
v -0.071659 -0.681853 -0.570481
v 0.018251 -0.686610 -0.567875
v -0.115949 -0.714984 -0.459471
v -0.097208 -0.761197 -0.278266
v -0.031894 -0.796584 -0.228651
v 0.049116 -0.796185 -0.244589
v 0.098258 -0.759281 -0.311414
v 0.089224 -0.746078 -0.433502
v -0.018276 0.329159 0.382429
v 0.004626 0.118606 0.449931
v -0.121660 0.057774 -0.473762
v -0.114123 0.282053 -0.406859
v -0.159838 -0.230476 -0.516563
v -0.100139 -0.021953 -0.503698
v -0.142570 -0.492381 0.152299
v -0.173567 -0.417865 -0.287798
v -0.063843 0.385565 -0.222199
v 0.019928 -0.149545 0.435682
v -0.043100 -0.363663 0.362342
v -0.035310 0.415821 0.115316
v -0.034133 -1.042166 -0.396032
v 0.053658 -1.042232 -0.413330
v 0.105095 -1.000348 -0.491392
v 0.084100 -0.916554 -0.558187
v -0.076826 -0.839510 -0.630674
v -0.122145 -0.914413 -0.581153
v -0.101590 -1.001097 -0.480143
v 0.011781 -0.843647 -0.629539
vn 0.859216 0.310906 0.406308
vn 0.859216 0.310906 0.406308
vn 0.859216 0.310906 0.406308
vn 0.859216 0.310906 0.406308
vn 0.325912 0.275610 -0.904334
vn 0.325912 0.275610 -0.904334
vn 0.325912 0.275610 -0.904334
vn 0.325912 0.275610 -0.904334
vn 0.195598 0.034200 -0.980088
vn 0.195598 0.034200 -0.980088
vn 0.195598 0.034200 -0.980088
vn 0.195598 0.034200 -0.980088
vn -0.984447 -0.174208 0.022701
vn -0.984447 -0.174208 0.022701
vn -0.984447 -0.174208 0.022701
vn -0.984447 -0.174208 0.022701
vn 0.454284 0.724075 -0.518982
vn 0.454284 0.724075 -0.518982
vn 0.454284 0.724075 -0.518982
vn 0.454284 0.724075 -0.518982
vn 0.324400 0.335300 -0.884499
vn 0.324400 0.335300 -0.884499
vn 0.324400 0.335300 -0.884499
vn 0.324400 0.335300 -0.884499
vn 0.998159 -0.014499 -0.058898
vn 0.998159 -0.014499 -0.058898
vn 0.998159 -0.014499 -0.058898
vn 0.998159 -0.014499 -0.058898
vn 0.381205 -0.388905 0.838711
vn 0.381205 -0.388905 0.838711
vn 0.381205 -0.388905 0.838711
vn 0.381205 -0.388905 0.838711
vn -0.923918 -0.237805 -0.299706
vn -0.923918 -0.237805 -0.299706
vn -0.923918 -0.237805 -0.299706
vn -0.923918 -0.237805 -0.299706
vn 0.991791 0.081899 -0.098199
vn 0.991791 0.081899 -0.098199
vn 0.991791 0.081899 -0.098199
vn 0.991791 0.081899 -0.098199
vn 0.995335 -0.044302 -0.085703
vn 0.995335 -0.044302 -0.085703
vn 0.995335 -0.044302 -0.085703
vn 0.995335 -0.044302 -0.085703
vn 0.942537 0.007700 -0.334013
vn 0.942537 0.007700 -0.334013
vn 0.942537 0.007700 -0.334013
vn 0.942537 0.007700 -0.334013
vn 0.938408 0.116201 -0.325403
vn 0.938408 0.116201 -0.325403
vn 0.938408 0.116201 -0.325403
vn 0.938408 0.116201 -0.325403
vn 0.969848 0.117506 0.213511
vn 0.969848 0.117506 0.213511
vn 0.969848 0.117506 0.213511
vn 0.969848 0.117506 0.213511
vn 0.958975 -0.183495 0.216094
vn 0.958975 -0.183495 0.216094
vn 0.958975 -0.183495 0.216094
vn 0.958975 -0.183495 0.216094
vn 0.910205 0.360602 0.203701
vn 0.910205 0.360602 0.203701
vn 0.910205 0.360602 0.203701
vn 0.910205 0.360602 0.203701
vn 0.927572 0.360889 -0.096797
vn 0.927572 0.360889 -0.096797
vn 0.927572 0.360889 -0.096797
vn 0.927572 0.360889 -0.096797
vn 0.871223 0.346209 -0.348009
vn 0.871223 0.346209 -0.348009
vn 0.871223 0.346209 -0.348009
vn 0.871223 0.346209 -0.348009
vn 0.677591 0.727090 -0.110499
vn 0.677591 0.727090 -0.110499
vn 0.677591 0.727090 -0.110499
vn 0.677591 0.727090 -0.110499
vn 0.637731 0.063503 0.767637
vn 0.637731 0.063503 0.767637
vn 0.637731 0.063503 0.767637
vn 0.637731 0.063503 0.767637
vn 0.837891 0.517395 0.173898
vn 0.837891 0.517395 0.173898
vn 0.837891 0.517395 0.173898
vn 0.837891 0.517395 0.173898
vn 0.122406 0.188310 -0.974452
vn 0.122406 0.188310 -0.974452
vn 0.122406 0.188310 -0.974452
vn 0.122406 0.188310 -0.974452
vn -0.978018 -0.208304 0.009500
vn -0.978018 -0.208304 0.009500
vn -0.978018 -0.208304 0.009500
vn -0.978018 -0.208304 0.009500
vn 0.041999 -0.882472 0.468485
vn 0.041999 -0.882472 0.468485
vn 0.041999 -0.882472 0.468485
vn 0.041999 -0.882472 0.468485
vn 0.176601 0.128901 -0.975806
vn 0.176601 0.128901 -0.975806
vn 0.176601 0.128901 -0.975806
vn 0.176601 0.128901 -0.975806
vn 0.930768 -0.241392 0.274591
vn 0.930768 -0.241392 0.274591
vn 0.930768 -0.241392 0.274591
vn 0.930768 -0.241392 0.274591
vn 0.919747 0.031802 -0.391220
vn 0.919747 0.031802 -0.391220
vn 0.919747 0.031802 -0.391220
vn 0.919747 0.031802 -0.391220
vn -0.518714 -0.677619 0.521314
vn -0.518714 -0.677619 0.521314
vn -0.518714 -0.677619 0.521314
vn -0.518714 -0.677619 0.521314
vn 0.205190 -0.677767 0.706066
vn 0.205190 -0.677767 0.706066
vn 0.205190 -0.677767 0.706066
vn 0.205190 -0.677767 0.706066
vn 0.161597 -0.556491 0.814987
vn 0.161597 -0.556491 0.814987
vn 0.161597 -0.556491 0.814987
vn 0.161597 -0.556491 0.814987
vn 0.989801 0.087400 -0.112500
vn 0.989801 0.087400 -0.112500
vn 0.989801 0.087400 -0.112500
vn 0.989801 0.087400 -0.112500
vn -0.907130 0.213607 -0.362612
vn -0.907130 0.213607 -0.362612
vn -0.907130 0.213607 -0.362612
vn -0.907130 0.213607 -0.362612
vn 0.789517 -0.564812 0.240105
vn 0.789517 -0.564812 0.240105
vn 0.789517 -0.564812 0.240105
vn 0.789517 -0.564812 0.240105
vn 0.904694 0.082499 -0.417997
vn 0.904694 0.082499 -0.417997
vn 0.904694 0.082499 -0.417997
vn 0.904694 0.082499 -0.417997
vn -0.619464 -0.695859 0.363379
vn -0.619464 -0.695859 0.363379
vn -0.619464 -0.695859 0.363379
vn -0.619464 -0.695859 0.363379
vn -0.959311 -0.005300 -0.282303
vn -0.959311 -0.005300 -0.282303
vn -0.959311 -0.005300 -0.282303
vn -0.959311 -0.005300 -0.282303
vn 0.992694 -0.081799 -0.088699
vn 0.992694 -0.081799 -0.088699
vn 0.992694 -0.081799 -0.088699
vn 0.992694 -0.081799 -0.088699
vn -0.992149 -0.057803 0.110905
vn -0.992149 -0.057803 0.110905
vn -0.992149 -0.057803 0.110905
vn -0.992149 -0.057803 0.110905
vn 0.037502 0.359618 -0.932346
vn 0.037502 0.359618 -0.932346
vn 0.037502 0.359618 -0.932346
vn 0.037502 0.359618 -0.932346
vn 0.852782 -0.290694 0.433891
vn 0.852782 -0.290694 0.433891
vn 0.852782 -0.290694 0.433891
vn 0.852782 -0.290694 0.433891
vn 0.861600 0.227600 -0.453700
vn 0.861600 0.227600 -0.453700
vn 0.861600 0.227600 -0.453700
vn 0.861600 0.227600 -0.453700
vn -0.755172 -0.390286 0.526681
vn -0.755172 -0.390286 0.526681
vn -0.755172 -0.390286 0.526681
vn -0.755172 -0.390286 0.526681
s off
g polySurface10 WolfMesh
usemtl WolfMain
f 33//1 34//2 13//3 10//4
f 35//5 36//6 12//7 16//8
f 37//9 38//10 3//11 15//12
f 39//13 40//14 19//15 20//16
f 36//17 41//18 11//19 12//20
f 38//21 35//22 16//23 3//24
f 2//25 7//26 23//27 24//28
f 42//29 43//30 14//31 6//32
f 40//33 37//34 17//35 19//36
f 5//37 1//38 4//39 8//40
f 5//41 7//42 2//43 1//44
f 1//45 2//46 15//47 3//48
f 1//49 3//50 16//51 4//52
f 5//53 8//54 13//55 6//56
f 5//57 6//58 14//59 7//60
f 9//61 10//62 13//63 8//64
f 11//65 9//66 8//67 4//68
f 11//69 4//70 16//71 12//72
f 41//73 44//74 9//75 11//76
f 34//77 42//78 6//79 13//80
f 44//81 33//82 10//83 9//84
f 17//85 18//86 26//87 25//88
f 20//89 19//90 27//91 28//92
f 22//93 21//94 29//95 30//96
f 37//97 15//98 18//99 17//100
f 7//101 14//102 22//103 23//104
f 15//105 2//106 24//107 18//108
f 43//109 39//110 20//111 21//112
f 14//113 43//114 21//115 22//116
f 30//117 29//118 45//119 46//120
f 32//121 31//122 47//123 48//124
f 27//125 25//126 49//127 50//128
f 23//129 22//130 30//131 31//132
f 18//133 24//134 32//135 26//136
f 21//137 20//138 28//139 29//140
f 19//141 17//142 25//143 27//144
f 24//145 23//146 31//147 32//148
f 28//149 27//150 50//151 51//152
f 25//153 26//154 52//155 49//156
f 31//157 30//158 46//159 47//160
f 26//161 32//162 48//163 52//164
f 29//165 28//166 51//167 45//168
